<?xml version="1.0" encoding="UTF-8" standalone="no"?>
<!-- Created with Inkscape (http://www.inkscape.org/) -->

<svg
   xmlns:dc="http://purl.org/dc/elements/1.1/"
   xmlns:cc="http://creativecommons.org/ns#"
   xmlns:rdf="http://www.w3.org/1999/02/22-rdf-syntax-ns#"
   xmlns:svg="http://www.w3.org/2000/svg"
   xmlns="http://www.w3.org/2000/svg"
   xmlns:sodipodi="http://sodipodi.sourceforge.net/DTD/sodipodi-0.dtd"
   xmlns:inkscape="http://www.inkscape.org/namespaces/inkscape"
   width="54.034588mm"
   height="21.269781mm"
   viewBox="0 0 54.034586 21.269781"
   version="1.1"
   id="svg8"
   inkscape:version="0.92.4 (5da689c313, 2019-01-14)"
   sodipodi:docname="drawing.svg">
  <defs
     id="defs2" />
  <sodipodi:namedview
     id="base"
     pagecolor="#ffffff"
     bordercolor="#666666"
     borderopacity="1.0"
     inkscape:pageopacity="0.0"
     inkscape:pageshadow="2"
     inkscape:zoom="4"
     inkscape:cx="85.196331"
     inkscape:cy="63.500998"
     inkscape:document-units="mm"
     inkscape:current-layer="layer1"
     showgrid="false"
     inkscape:window-width="2560"
     inkscape:window-height="1048"
     inkscape:window-x="0"
     inkscape:window-y="0"
     inkscape:window-maximized="1"
     fit-margin-top="0"
     fit-margin-left="0"
     fit-margin-right="0"
     fit-margin-bottom="0"
     units="px" />
  <metadata
     id="metadata5">
    <rdf:RDF>
      <cc:Work
         rdf:about="">
        <dc:format>image/svg+xml</dc:format>
        <dc:type
           rdf:resource="http://purl.org/dc/dcmitype/StillImage" />
        <dc:title></dc:title>
      </cc:Work>
    </rdf:RDF>
  </metadata>
  <g
     inkscape:label="Layer 1"
     inkscape:groupmode="layer"
     id="layer1"
     transform="translate(103.97261,-204.92091)">
    <path
       inkscape:connector-curvature="0"
       id="path884"
       d="m -97.413725,225.51456 c -0.0071,-0.007 -0.186994,-0.0156 -0.399653,-0.0188 -0.212658,-0.003 -0.481174,-0.0193 -0.5967,-0.0358 -0.571703,-0.0817 -0.687376,-0.10168 -1.007384,-0.17419 -0.189707,-0.043 -0.368042,-0.0781 -0.396299,-0.0781 -0.02826,0 -0.07662,-0.0131 -0.107488,-0.0292 -0.03086,-0.016 -0.121551,-0.0472 -0.201531,-0.0693 -0.2244,-0.062 -0.71258,-0.22279 -0.82241,-0.27086 -0.0542,-0.0237 -0.14947,-0.0619 -0.21167,-0.0848 -0.54181,-0.19939 -1.93999,-0.98439 -2.10286,-1.18063 -0.0208,-0.0251 -0.0505,-0.0456 -0.066,-0.0456 -0.0155,0 -0.0609,-0.0273 -0.10107,-0.0607 -0.0401,-0.0334 -0.21837,-0.18107 -0.3961,-0.3282 -0.61494,-0.50904 -1.33801,-1.28258 -1.70563,-1.82468 -0.0723,-0.10664 -0.1411,-0.20116 -0.15284,-0.21005 -0.0278,-0.021 -0.22812,-0.33602 -0.4217,-0.66315 -0.12435,-0.21014 -0.48368,-0.93246 -0.61053,-1.22728 -0.0776,-0.18024 -0.28205,-0.74872 -0.3255,-0.90483 -0.0148,-0.0533 -0.0502,-0.17692 -0.0785,-0.27468 -0.0283,-0.0977 -0.0672,-0.25044 -0.0863,-0.3393 -0.0191,-0.0889 -0.0489,-0.21975 -0.0661,-0.29084 -0.0953,-0.39357 -0.21918,-1.55872 -0.22004,-2.07019 -10e-4,-0.84902 0.15055,-1.9483 0.38931,-2.81588 0.0382,-0.13862 0.0816,-0.28112 0.0965,-0.31666 0.0149,-0.0356 0.0675,-0.18824 0.11691,-0.33931 0.0494,-0.15108 0.10102,-0.27953 0.1148,-0.28545 0.0138,-0.006 0.0251,-0.0309 0.0251,-0.0556 0,-0.0801 0.32561,-0.76892 0.6026,-1.27471 0.21511,-0.39278 0.73681,-1.14285 1.04348,-1.50025 0.4792,-0.55847 1.03493,-1.09659 1.48848,-1.44133 0.08,-0.0608 0.15269,-0.11957 0.16158,-0.13062 0.0246,-0.0307 0.77659,-0.54709 0.79657,-0.54709 0.01,0 0.0561,-0.027 0.10326,-0.0601 0.20046,-0.14034 0.96096,-0.53107 1.27032,-0.65267 0.095,-0.0373 0.21632,-0.0872 0.26964,-0.1107 0.22254,-0.0983 0.5516,-0.20566 1.147189,-0.37427 0.123543,-0.035 0.622761,-0.14225 0.904823,-0.19442 0.868186,-0.1606 2.384111,-0.16105 3.344614,-9.9e-4 0.229295,0.0382 0.822071,0.16419 0.937139,0.19917 0.05332,0.0162 0.249635,0.0751 0.436255,0.13097 0.365385,0.1093 0.658907,0.2164 0.929942,0.33933 0.0938,0.0425 0.178168,0.0773 0.187495,0.0773 0.02169,0 0.442234,0.2105 0.75999,0.3804 0.471776,0.25227 1.158697,0.72044 1.596445,1.08806 0.181009,0.15201 0.287889,0.24898 0.666531,0.60469 0.156725,0.14723 0.39708,0.41016 0.642232,0.70254 0.07998,0.0954 0.160199,0.18971 0.178263,0.2096 0.08742,0.0963 0.412632,0.55048 0.569635,0.79558 0.717653,1.12032 1.218627,2.37524 1.451299,3.63545 0.125826,0.68149 0.160068,1.08053 0.160834,1.87427 9.77e-4,0.95308 -0.05462,1.4959 -0.239726,2.34285 -0.08877,0.40618 -0.315316,1.12591 -0.472976,1.50265 -0.654498,1.56397 -1.535623,2.79995 -2.778654,3.8977 -0.209508,0.18502 -0.805128,0.64447 -0.988798,0.76274 -0.03363,0.0216 -0.138953,0.0907 -0.234049,0.15349 -0.0951,0.0628 -0.179409,0.11413 -0.187364,0.11413 -0.008,0 -0.09011,0.0482 -0.182564,0.1071 -0.176428,0.1124 -1.024286,0.53103 -1.218343,0.60156 -0.146732,0.0533 -0.223912,0.0829 -0.323151,0.12397 -0.102003,0.0422 -0.519532,0.17883 -0.710932,0.23267 -0.07998,0.0225 -0.181774,0.0524 -0.226207,0.0664 -0.04443,0.014 -0.18985,0.0492 -0.323151,0.0782 -0.1333,0.0289 -0.300531,0.0654 -0.371624,0.081 -0.204406,0.0448 -0.52365,0.0926 -0.85635,0.12817 -0.336445,0.036 -1.180328,0.072 -1.201075,0.0513 z m 1.127046,-0.5663 c 1.363349,-0.17946 2.142298,-0.4046 3.273225,-0.94606 0.485136,-0.23227 1.498381,-0.87545 1.777797,-1.12849 0.04469,-0.0405 0.168296,-0.14587 0.274678,-0.23423 0.314575,-0.26125 0.951935,-0.91755 1.194156,-1.22963 0.123842,-0.15956 0.243822,-0.30934 0.266624,-0.33284 0.05076,-0.0523 0.414695,-0.60255 0.55952,-0.84594 0.560235,-0.94152 1.013409,-2.15862 1.179152,-3.16688 0.09742,-0.59266 0.110593,-0.69896 0.149339,-1.20556 0.03079,-0.40263 0.03057,-0.63528 -0.0011,-1.09872 -0.02207,-0.32335 -0.05308,-0.66063 -0.06892,-0.7495 -0.01583,-0.0889 -0.04493,-0.25609 -0.06466,-0.37162 -0.04924,-0.28833 -0.129822,-0.67806 -0.160357,-0.77556 -0.01391,-0.0444 -0.04383,-0.14623 -0.06648,-0.22621 -0.07277,-0.25699 -0.153132,-0.49357 -0.274426,-0.80788 -0.172514,-0.44704 -0.212431,-0.534 -0.526564,-1.14719 -0.242482,-0.47332 -0.793012,-1.26261 -1.21672,-1.74441 -0.630683,-0.71715 -1.272201,-1.27048 -2.094748,-1.80679 -0.36142,-0.23565 -1.334237,-0.73614 -1.517389,-0.78066 -0.04904,-0.0119 -0.09716,-0.0346 -0.106931,-0.0504 -0.0098,-0.0158 -0.03887,-0.0287 -0.06468,-0.0287 -0.0258,0 -0.10856,-0.0271 -0.183903,-0.0603 -0.193804,-0.0853 -0.650043,-0.23054 -0.724193,-0.23054 -0.03428,0 -0.07614,-0.0119 -0.09303,-0.0264 -0.03784,-0.0326 -0.245862,-0.0814 -0.709317,-0.16643 -1.596164,-0.29292 -3.32098,-0.18372 -4.814954,0.30484 -0.17005,0.0556 -0.19851,0.0669 -0.44398,0.17562 -0.0842,0.0373 -0.16704,0.0678 -0.18402,0.0678 -0.0591,0 -0.8419,0.37238 -1.10356,0.52495 -0.40285,0.23488 -0.57033,0.34585 -0.99304,0.65797 -0.49388,0.36466 -0.67255,0.51739 -1.07313,0.91731 -0.89335,0.89189 -1.62913,1.97219 -2.08007,3.05403 -0.0667,0.15996 -0.13448,0.31992 -0.15066,0.35547 -0.0369,0.0809 -0.22501,0.64528 -0.25857,0.77556 -0.0137,0.0533 -0.0463,0.17693 -0.0725,0.27468 -0.37026,1.38591 -0.39639,3.07431 -0.07,4.52412 0.03,0.1333 0.0613,0.27871 0.0695,0.32315 0.008,0.0444 0.0267,0.10987 0.0411,0.14542 0.0144,0.0355 0.0443,0.13006 0.0664,0.21004 0.0595,0.21544 0.13057,0.4288 0.16394,0.49237 0.0162,0.0309 0.0294,0.0704 0.0294,0.0879 0,0.0175 0.0364,0.11128 0.0808,0.20842 0.0444,0.0971 0.0808,0.18946 0.0808,0.20517 0,0.0755 0.57006,1.16173 0.74115,1.41228 0.10536,0.15428 0.15741,0.23178 0.3156,0.4699 0.0649,0.0977 0.13478,0.19227 0.1552,0.21005 0.0204,0.0178 0.0867,0.0977 0.14725,0.17773 0.26815,0.35411 1.02135,1.11825 1.38758,1.40775 0.1333,0.10537 0.24964,0.19962 0.25852,0.20943 0.009,0.01 0.0671,0.0528 0.12926,0.0955 0.0622,0.0427 0.12038,0.0857 0.12926,0.0956 0.0366,0.0405 0.25589,0.19527 0.27675,0.19527 0.0124,0 0.0934,0.0509 0.17996,0.1131 0.0866,0.0622 0.16425,0.1131 0.17258,0.1131 0.008,0 0.121,0.0624 0.25037,0.13859 0.30333,0.17871 1.03683,0.53226 1.22083,0.58843 0.0444,0.0136 0.13895,0.0497 0.21005,0.0804 0.4988,0.21496 1.346797,0.41517 2.310529,0.54552 0.299098,0.0404 1.726989,0.0429 2.026453,0.004 z m -1.008528,-4.784 c -0.320556,-0.0241 -0.595985,-0.0678 -0.969453,-0.15356 -0.134191,-0.0308 -0.694752,-0.21254 -0.807878,-0.26189 -0.03555,-0.0155 -0.122798,-0.053 -0.19389,-0.0832 -0.497223,-0.21163 -1.297282,-0.67667 -1.712702,-0.99554 -0.0889,-0.0682 -0.23429,-0.17904 -0.32315,-0.24628 -0.58325,-0.44133 -1.54175,-1.42098 -2.02584,-2.07053 -0.31771,-0.42631 -0.42942,-0.48586 -0.72892,-0.38861 -0.32675,0.10611 -0.5149,0.0993 -0.63729,-0.0231 -0.0778,-0.0778 -0.0868,-0.10732 -0.0737,-0.24342 0.0187,-0.19417 0.1047,-0.29195 0.36348,-0.41304 0.42186,-0.19743 0.6305,-0.37219 1.14855,-0.96211 0.12601,-0.14349 0.16334,-0.16715 0.26373,-0.16715 0.0909,0 0.13556,0.0221 0.2006,0.0994 0.10886,0.12938 0.10847,0.2789 -0.001,0.49371 -0.18178,0.35565 -0.12227,0.89919 0.14064,1.28454 0.0609,0.0892 0.28538,0.35648 0.52565,0.62575 0.31949,0.35805 0.9746,0.98085 1.33457,1.26876 1.059447,0.84733 1.972847,1.29899 3.026489,1.49653 0.662854,0.12428 1.659702,0.0634 2.1508,-0.13129 0.03555,-0.0141 0.125815,-0.0484 0.200595,-0.0763 0.355721,-0.13255 0.862137,-0.4261 1.251415,-0.72538 0.190173,-0.1462 0.792439,-0.73008 0.955684,-0.9265 0.289379,-0.3482 0.775346,-1.01612 0.775346,-1.06565 0,-0.0127 0.02702,-0.0617 0.06005,-0.10887 0.0587,-0.0838 0.213756,-0.36076 0.328488,-0.58666 0.248477,-0.48923 0.416251,-1.04307 0.418184,-1.38049 0.0012,-0.20437 -0.02103,-0.26403 -0.204442,-0.5494 -0.04317,-0.0672 -0.09515,-0.17505 -0.115512,-0.23974 -0.03148,-0.10001 -0.02797,-0.13388 0.02346,-0.22621 0.08095,-0.14532 0.183557,-0.19487 0.371177,-0.17924 0.14016,0.0117 0.175737,0.0335 0.387781,0.23775 0.318193,0.3065 0.496225,0.42329 0.999933,0.65594 0.263389,0.12166 0.316087,0.18963 0.316087,0.40773 0,0.13641 -0.01524,0.18137 -0.08519,0.25133 -0.09024,0.0902 -0.104568,0.0931 -0.428747,0.0853 -0.339348,-0.008 -0.485459,0.11632 -0.739716,0.63001 -0.319552,0.6456 -0.423853,0.85115 -0.508325,1.00177 -0.04984,0.0889 -0.118762,0.21247 -0.153162,0.27468 -0.0344,0.0622 -0.09744,0.15939 -0.140098,0.21597 -0.04265,0.0566 -0.07755,0.11838 -0.07755,0.13733 0,0.019 -0.01208,0.0345 -0.02685,0.0345 -0.01477,0 -0.04749,0.0386 -0.07271,0.0859 -0.05143,0.0963 -0.309581,0.43935 -0.582683,0.77426 -0.283891,0.34815 -0.888019,0.91445 -1.241563,1.16383 -0.266489,0.18798 -0.829949,0.52892 -0.874123,0.52892 -0.0065,0 -0.103113,0.0415 -0.214642,0.0922 -0.635628,0.28896 -1.479125,0.42008 -2.303261,0.35805 z m -3.357843,-8.46915 c -0.16485,-0.10919 -0.28285,-0.27043 -0.38672,-0.52843 -0.0524,-0.13027 -0.0652,-0.23669 -0.0656,-0.54935 -4.9e-4,-0.36519 0.005,-0.40008 0.098,-0.59881 0.12444,-0.26647 0.26396,-0.426 0.44838,-0.51269 0.28404,-0.13351 0.52619,-0.0732 0.771968,0.19227 0.493624,0.53317 0.422522,1.56584 -0.137209,1.99276 -0.125289,0.0956 -0.160349,0.10597 -0.357079,0.10597 -0.1906,0 -0.23755,-0.0129 -0.37172,-0.10172 z m 5.358151,0.0104 c -0.227672,-0.16498 -0.357009,-0.3803 -0.461782,-0.76877 -0.04739,-0.17572 -0.04364,-0.40654 0.01027,-0.63205 0.161745,-0.67655 0.610254,-1.01434 1.063769,-0.80116 0.249012,0.11705 0.406796,0.33478 0.535493,0.73893 0.04544,0.1427 0.04508,0.64101 -6.11e-4,0.78207 -0.174549,0.53942 -0.419025,0.77231 -0.810718,0.77231 -0.179672,0 -0.228867,-0.0134 -0.33647,-0.0913 z"
       style="fill:#494949;fill-opacity:0.3523316;stroke-width:0.03231512" />
    <path
       inkscape:connector-curvature="0"
       id="path890"
       d="m -64.407491,225.93806 c -0.524486,-0.0447 -1.230477,-0.14682 -1.534969,-0.22211 -0.508808,-0.1258 -0.839136,-0.21994 -1.017925,-0.2901 -0.03555,-0.0139 -0.21732,-0.0795 -0.403939,-0.14571 -0.316341,-0.1122 -1.122513,-0.48977 -1.454182,-0.68106 -0.454266,-0.26201 -1.186034,-0.78619 -1.60882,-1.15244 -0.268357,-0.23247 -1.032042,-1.0259 -1.250917,-1.29964 -0.59071,-0.73878 -1.186353,-1.73541 -1.468759,-2.45751 -0.04171,-0.10664 -0.09459,-0.23752 -0.117532,-0.29084 -0.06088,-0.14152 -0.237233,-0.65533 -0.270966,-0.78946 -0.01596,-0.0635 -0.0675,-0.26805 -0.114534,-0.45467 -0.12971,-0.51465 -0.181866,-0.83464 -0.258087,-1.58344 -0.102442,-1.0064 -0.02646,-2.05337 0.230998,-3.18304 0.08746,-0.38378 0.09336,-0.40486 0.234795,-0.84019 0.363902,-1.12006 1.033605,-2.37486 1.680982,-3.14962 0.08117,-0.0971 0.169396,-0.20515 0.196056,-0.24004 0.255978,-0.3349 0.97144,-1.0357 1.45418,-1.42438 0.348192,-0.28034 1.126067,-0.82495 1.178296,-0.82495 0.01295,0 0.06214,-0.0273 0.10932,-0.0607 0.0893,-0.0632 0.68955,-0.37085 0.942127,-0.48291 0.770542,-0.34185 1.760375,-0.63755 2.488265,-0.74333 0.1333,-0.0194 0.358697,-0.054 0.500884,-0.077 0.349054,-0.0564 2.001232,-0.0555 2.375162,0.001 0.432856,0.0657 1.171507,0.2004 1.260289,0.22973 0.04443,0.0147 0.138954,0.0425 0.210048,0.0619 0.403502,0.10989 0.523467,0.14451 0.581672,0.16787 0.03555,0.0143 0.188236,0.0719 0.339308,0.12816 0.151074,0.0562 0.325576,0.12378 0.387782,0.15011 0.137521,0.0582 1.044394,0.50858 1.179501,0.58576 0.161696,0.0924 0.354495,0.21236 0.371623,0.23129 0.0089,0.01 0.125221,0.0894 0.258522,0.17679 0.705102,0.46235 1.657848,1.3444 2.177143,2.01558 0.03726,0.0481 0.09437,0.11664 0.126927,0.15218 0.03255,0.0356 0.22418,0.31184 0.425841,0.61399 0.6443,0.96535 1.171653,2.14744 1.405599,3.15073 0.227375,0.97511 0.296278,1.56098 0.296278,2.51922 0,0.87262 -0.04459,1.32289 -0.204926,2.06952 -0.08462,0.39404 -0.110746,0.50578 -0.153009,0.65438 -0.01895,0.0667 -0.04671,0.16844 -0.06168,0.22621 -0.05342,0.20619 -0.19625,0.60295 -0.267395,0.74281 -0.0157,0.0309 -0.02854,0.0698 -0.02854,0.0866 0,0.0664 -0.389054,0.88538 -0.576926,1.21451 -0.06087,0.10664 -0.126831,0.22297 -0.146577,0.25852 -0.164741,0.29656 -0.709233,1.04871 -1.020915,1.41027 -0.667042,0.77379 -1.75213,1.69085 -2.488862,2.10346 -0.07998,0.0448 -0.232791,0.13135 -0.339582,0.19236 -0.165109,0.0943 -0.689425,0.3532 -0.904549,0.44662 -0.195285,0.0848 -0.659524,0.2583 -0.691141,0.2583 -0.02025,0 -0.06208,0.0142 -0.09294,0.0316 -0.03086,0.0174 -0.186989,0.0687 -0.346949,0.11408 -0.276715,0.0785 -0.344921,0.0967 -0.646303,0.17263 -0.331374,0.0834 -1.001103,0.1787 -1.620837,0.23054 -0.445959,0.0373 -0.850436,0.0361 -1.319838,-0.004 z m 1.938907,-0.65554 c 0.625995,-0.0945 0.78024,-0.12426 1.147187,-0.22093 0.1333,-0.0351 0.285988,-0.0748 0.339308,-0.0882 0.08424,-0.0211 0.229316,-0.071 0.759405,-0.26079 0.06221,-0.0223 0.219302,-0.0891 0.3491,-0.14858 0.129797,-0.0594 0.25413,-0.10808 0.276294,-0.10808 0.02216,0 0.05411,-0.0137 0.071,-0.0305 0.01689,-0.0168 0.125221,-0.0796 0.240748,-0.1397 0.329182,-0.17116 0.518198,-0.28048 0.718646,-0.41567 0.101995,-0.0688 0.193103,-0.12507 0.202462,-0.12507 0.01678,0 0.46937,-0.32035 0.500756,-0.35444 0.0089,-0.01 0.07433,-0.0603 0.145418,-0.1126 0.07109,-0.0523 0.136532,-0.10309 0.145418,-0.11292 0.0089,-0.01 0.0816,-0.0745 0.161575,-0.14376 0.514373,-0.44533 1.032111,-1.00388 1.440923,-1.55449 0.220595,-0.29712 0.59493,-0.87507 0.59493,-0.91854 0,-0.0162 0.01097,-0.0342 0.02437,-0.0401 0.06765,-0.0299 0.557427,-1.07762 0.699936,-1.49727 0.04829,-0.14219 0.09937,-0.28761 0.113521,-0.32315 0.04784,-0.12018 0.09401,-0.28949 0.180664,-0.66246 0.04749,-0.2044 0.0984,-0.42252 0.113145,-0.48473 0.214745,-0.90603 0.200166,-2.68976 -0.03091,-3.78087 -0.121921,-0.57571 -0.24006,-0.99627 -0.328936,-1.17098 -0.0157,-0.0309 -0.0285,-0.0745 -0.02845,-0.097 9.6e-5,-0.0367 -0.08479,-0.25982 -0.218318,-0.57403 -0.111335,-0.26197 -0.313836,-0.6642 -0.345465,-0.6862 -0.01878,-0.0131 -0.0239,-0.024 -0.01138,-0.0242 0.02486,-4.9e-4 -0.280521,-0.54275 -0.437076,-0.77605 -0.108505,-0.1617 -0.534708,-0.73935 -0.586586,-0.79502 -0.01825,-0.0196 -0.09055,-0.10684 -0.160678,-0.19389 -0.122923,-0.1526 -0.830857,-0.86495 -1.055647,-1.06222 -0.165312,-0.14508 -0.875127,-0.67313 -0.975038,-0.72536 -0.04825,-0.0252 -0.08772,-0.0579 -0.08772,-0.0727 0,-0.0148 -0.01485,-0.0268 -0.03301,-0.0268 -0.01815,0 -0.08723,-0.0353 -0.153497,-0.0784 -0.242182,-0.15762 -1.09344,-0.60021 -1.154401,-0.60021 -0.0079,0 -0.09119,-0.0346 -0.185025,-0.0768 -0.09384,-0.0422 -0.30876,-0.12321 -0.477606,-0.17992 -0.168847,-0.0567 -0.336077,-0.11545 -0.371624,-0.13053 -0.0866,-0.0367 -0.574205,-0.16183 -0.775563,-0.19898 -0.08887,-0.0164 -0.234284,-0.0437 -0.323151,-0.0607 -0.993699,-0.18971 -2.519795,-0.19063 -3.457718,-0.002 -0.08887,0.0179 -0.241556,0.0467 -0.339308,0.064 -0.09775,0.0174 -0.308609,0.0698 -0.46857,0.11653 -0.15996,0.0467 -0.319919,0.0925 -0.355466,0.10167 -0.03555,0.009 -0.09371,0.0293 -0.12926,0.0447 -0.03555,0.0154 -0.180965,0.0674 -0.323151,0.11551 -0.142187,0.0481 -0.272336,0.0997 -0.28922,0.11467 -0.01689,0.015 -0.05688,0.0272 -0.08887,0.0272 -0.03199,0 -0.05817,0.0145 -0.05817,0.0323 0,0.0178 -0.02255,0.0323 -0.05012,0.0323 -0.109959,0 -1.393044,0.67902 -1.468694,0.77724 -0.0089,0.0115 -0.08159,0.0619 -0.161576,0.112 -0.17327,0.10846 -0.491659,0.34968 -0.759404,0.57534 -0.31096,0.26208 -1.050812,1.01737 -1.271825,1.29837 -0.111837,0.14218 -0.22059,0.28033 -0.241674,0.30699 -0.110923,0.14025 -0.344621,0.49192 -0.344621,0.51859 0,0.0169 -0.01278,0.0308 -0.02839,0.0308 -0.01562,0 -0.04698,0.0449 -0.06969,0.0997 -0.02271,0.0548 -0.0572,0.1172 -0.07663,0.13859 -0.08108,0.0892 -0.503904,0.90618 -0.503904,0.97359 0,0.0266 -0.01454,0.0484 -0.03231,0.0484 -0.01777,0 -0.03231,0.0196 -0.03231,0.0435 0,0.0239 -0.02023,0.0857 -0.04495,0.13734 -0.0996,0.20792 -0.148721,0.32756 -0.197735,0.48162 -0.02828,0.0889 -0.06363,0.19065 -0.07858,0.2262 -0.04452,0.10592 -0.135157,0.40671 -0.185005,0.61399 -0.02565,0.10664 -0.0613,0.25206 -0.07923,0.32315 -0.01793,0.0711 -0.04532,0.20924 -0.06086,0.30699 -0.01554,0.0978 -0.04238,0.26499 -0.05965,0.37163 -0.169274,1.04521 -0.114885,2.65979 0.120835,3.58697 0.01807,0.0711 0.04698,0.18743 0.06423,0.25853 0.01725,0.0711 0.05511,0.21651 0.08413,0.32315 0.02902,0.10664 0.06093,0.22682 0.07091,0.26707 0.01,0.0403 0.03096,0.0811 0.04661,0.0908 0.01565,0.01 0.02846,0.0522 0.02846,0.0946 0,0.0423 0.01454,0.086 0.03231,0.0969 0.01777,0.011 0.03231,0.0424 0.03231,0.0697 0,0.0274 0.02009,0.0956 0.04464,0.15159 0.02455,0.056 0.06664,0.15272 0.09354,0.21493 0.02689,0.0622 0.08035,0.18581 0.118788,0.27468 0.07763,0.17945 0.352319,0.72503 0.390487,0.77556 0.01342,0.0178 0.06426,0.10502 0.112973,0.19389 0.07621,0.13903 0.450612,0.70127 0.53614,0.80511 0.01589,0.0193 0.119659,0.15142 0.230595,0.2936 0.110936,0.14219 0.230785,0.2891 0.266332,0.32647 0.431257,0.45341 0.56399,0.5849 0.828425,0.82072 0.169409,0.15107 0.370601,0.32557 0.447096,0.38778 0.194818,0.15843 0.74723,0.5501 0.824962,0.58491 0.03555,0.0159 0.159151,0.0888 0.274677,0.16195 0.115527,0.0732 0.309986,0.18195 0.432131,0.24176 0.122144,0.0598 0.238478,0.12121 0.258521,0.13644 0.02004,0.0152 0.138232,0.0691 0.262646,0.11959 0.124412,0.0505 0.24002,0.10381 0.256904,0.11839 0.01689,0.0146 0.06124,0.0265 0.09856,0.0265 0.03732,0 0.08168,0.0135 0.09856,0.0301 0.02973,0.0292 0.544842,0.21055 0.741633,0.26116 0.05332,0.0137 0.184196,0.0489 0.290836,0.0783 0.248855,0.0685 0.443931,0.11295 0.646303,0.14725 0.509226,0.0863 0.639492,0.10524 0.888665,0.12922 0.41476,0.0399 1.773461,0.011 2.148955,-0.0457 z m -1.38955,-4.67321 c -0.460245,-0.0469 -1.146582,-0.20157 -1.421866,-0.32052 -0.05635,-0.0243 -0.160623,-0.0652 -0.210048,-0.0823 -0.117851,-0.0407 -0.403715,-0.17019 -0.694775,-0.31468 -0.222073,-0.11024 -0.478302,-0.25662 -0.645871,-0.36899 -0.08863,-0.0594 -0.179515,-0.10805 -0.201969,-0.10805 -0.02245,0 -0.04082,-0.0114 -0.04082,-0.0253 0,-0.0139 -0.03999,-0.049 -0.08887,-0.0779 -0.04888,-0.0289 -0.120406,-0.0793 -0.158952,-0.11199 -0.03855,-0.0327 -0.110547,-0.0885 -0.16,-0.12403 -0.750661,-0.53957 -1.780206,-1.56366 -2.322834,-2.31053 -0.276826,-0.38102 -0.374487,-0.43031 -0.678104,-0.34218 -0.283569,0.0823 -0.426454,0.0958 -0.535817,0.0505 -0.23097,-0.0957 -0.291197,-0.34649 -0.140517,-0.58518 0.04596,-0.0728 0.111396,-0.13965 0.145419,-0.14855 0.03402,-0.009 0.06186,-0.029 0.06186,-0.0447 0,-0.0157 0.02405,-0.0285 0.05345,-0.0285 0.0294,0 0.148764,-0.0533 0.265263,-0.11845 0.303842,-0.16992 0.516384,-0.3629 0.823224,-0.74747 0.156936,-0.19669 0.202011,-0.23295 0.320159,-0.25754 0.169725,-0.0353 0.291676,0.0351 0.365076,0.21073 0.05324,0.12743 0.03639,0.21851 -0.09057,0.48935 -0.09248,0.19731 -0.105148,0.40522 -0.04174,0.68528 0.05825,0.25728 0.141311,0.42203 0.325796,0.64623 0.06432,0.0782 0.169187,0.20755 0.233036,0.28753 0.228885,0.28671 1.261409,1.28114 1.57699,1.51881 0.176994,0.1333 0.329079,0.25021 0.337967,0.25979 0.03663,0.0395 0.578401,0.3818 0.743247,0.46959 0.09775,0.0521 0.185004,0.10235 0.193891,0.11175 0.02155,0.0228 0.546661,0.25775 0.79172,0.35426 0.03555,0.014 0.159153,0.0505 0.274678,0.0811 0.115528,0.0306 0.246404,0.0673 0.290837,0.0814 0.479865,0.1527 1.389966,0.16895 2.003537,0.0358 0.312259,-0.0678 0.782852,-0.22654 0.802492,-0.27073 0.0059,-0.0133 0.02751,-0.0242 0.04796,-0.0242 0.03619,0 0.377527,-0.16153 0.409837,-0.19394 0.0089,-0.009 0.0565,-0.037 0.105816,-0.0624 0.119945,-0.0618 0.650612,-0.46594 0.827486,-0.63013 0.367704,-0.34131 0.601919,-0.60122 0.916559,-1.01709 0.102099,-0.13495 0.200256,-0.26292 0.218128,-0.28439 0.01787,-0.0215 0.03249,-0.053 0.03249,-0.07 0,-0.0171 0.01331,-0.0358 0.02957,-0.0418 0.04302,-0.0157 0.441713,-0.68307 0.566184,-0.94778 0.179989,-0.38277 0.206135,-0.44556 0.27592,-0.66259 0.09856,-0.30652 0.162409,-0.59993 0.162409,-0.74629 0,-0.13458 -0.06828,-0.33162 -0.144099,-0.41587 -0.07308,-0.0812 -0.211367,-0.3768 -0.211367,-0.45182 0,-0.20385 0.185569,-0.35724 0.432169,-0.35724 0.154504,0 0.18269,0.0177 0.487161,0.30648 0.08796,0.0834 0.225279,0.19663 0.305153,0.25159 0.133414,0.0918 0.752449,0.41138 0.796831,0.41138 0.06678,0 0.208429,0.24809 0.208429,0.36505 0,0.0983 -0.07653,0.25278 -0.164812,0.33258 -0.05619,0.0508 -0.118024,0.0618 -0.347627,0.0618 -0.177834,0 -0.30773,0.0162 -0.357597,0.0445 -0.09815,0.0558 -0.228679,0.1848 -0.228679,0.22598 0,0.0171 -0.01144,0.0359 -0.02543,0.0419 -0.01399,0.006 -0.168301,0.3016 -0.342915,0.65707 -0.174615,0.35546 -0.3304,0.65115 -0.346189,0.65707 -0.01579,0.006 -0.02871,0.0237 -0.02871,0.0395 0,0.0272 -0.287295,0.51321 -0.323674,0.54753 -0.0094,0.009 -0.04435,0.0598 -0.07763,0.1131 -0.07273,0.11655 -0.404207,0.5649 -0.460505,0.62287 -0.022,0.0227 -0.09521,0.10953 -0.162693,0.19305 -0.412901,0.51104 -1.204951,1.20708 -1.619388,1.4231 -0.188033,0.098 -0.278355,0.14979 -0.29679,0.17014 -0.01987,0.0219 -0.184465,0.0974 -0.420096,0.19271 -0.09775,0.0395 -0.221359,0.0907 -0.274679,0.1138 -0.484397,0.20954 -1.432186,0.31461 -2.165112,0.24001 z m -3.005306,-8.35672 c -0.344694,-0.086 -0.668909,-0.5075 -0.711626,-0.9251 -0.0095,-0.0931 -0.02281,-0.22736 -0.02953,-0.29845 -0.02512,-0.26564 0.113945,-0.67853 0.311219,-0.92401 0.05551,-0.0691 0.174174,-0.16209 0.263698,-0.2067 0.288557,-0.14379 0.557726,-0.0955 0.790668,0.14187 0.202534,0.20637 0.210882,0.21907 0.278396,0.42353 0.03224,0.0976 0.07133,0.21093 0.08686,0.25175 0.04061,0.10673 0.03479,0.5472 -0.009,0.68288 -0.09659,0.29918 -0.135373,0.38467 -0.23907,0.52704 -0.06134,0.0842 -0.168307,0.18896 -0.237705,0.23276 -0.124762,0.0788 -0.377166,0.12606 -0.503893,0.0944 z m 5.275137,-0.0256 c -0.199379,-0.0711 -0.380929,-0.24274 -0.488004,-0.46125 -0.03307,-0.0675 -0.07431,-0.14995 -0.09163,-0.18325 -0.06157,-0.11835 -0.105355,-0.65983 -0.0678,-0.83854 0.08883,-0.42271 0.381832,-0.82063 0.659266,-0.89534 0.412456,-0.11106 0.823621,0.15507 0.974999,0.63108 0.131915,0.41481 0.14796,0.57746 0.08363,0.84781 -0.0803,0.33748 -0.193387,0.55471 -0.379304,0.72861 -0.220853,0.20658 -0.439565,0.26066 -0.69116,0.17088 z"
       style="fill:#8c8c8c;fill-opacity:1;stroke-width:0.03231512;opacity:0.622" />
    <path
       inkscape:connector-curvature="0"
       id="path886"
       d="m -60.788913,225.60168 c -0.394175,-0.0179 -0.873654,-0.0861 -1.486496,-0.21151 -1.532372,-0.31349 -3.058512,-1.04451 -4.320744,-2.06966 -0.262377,-0.21309 -1.061193,-0.99101 -1.288199,-1.2545 -0.366462,-0.42536 -0.861087,-1.12549 -1.130082,-1.5996 -0.375335,-0.66155 -0.739415,-1.51336 -0.918497,-2.14896 -0.02253,-0.08 -0.05346,-0.18177 -0.06871,-0.2262 -0.03168,-0.0923 -0.168657,-0.72852 -0.219142,-1.01793 -0.09155,-0.52485 -0.117243,-0.89302 -0.117243,-1.68039 0,-0.89024 0.04616,-1.4084 0.178476,-2.00353 0.109242,-0.49135 0.133693,-0.59583 0.166373,-0.71094 0.0632,-0.22259 0.285764,-0.89561 0.330526,-0.99948 0.02352,-0.0546 0.09891,-0.23011 0.167548,-0.39007 0.322853,-0.75244 0.832708,-1.59796 1.373782,-2.27821 0.148438,-0.18662 0.481119,-0.55098 0.739292,-0.8097 0.43731,-0.43823 0.591876,-0.57854 0.921866,-0.83688 0.07107,-0.0556 0.158295,-0.12536 0.193842,-0.15494 0.111462,-0.0927 0.834022,-0.57173 0.969453,-0.64265 0.07109,-0.0372 0.187428,-0.10115 0.258522,-0.14206 0.147702,-0.085 0.410664,-0.21568 0.646301,-0.32121 0.08887,-0.0398 0.205202,-0.0919 0.258522,-0.11588 0.314563,-0.14118 0.986756,-0.3768 1.244132,-0.4361 0.06221,-0.0143 0.268194,-0.0627 0.45775,-0.10756 0.346302,-0.0819 0.745023,-0.14935 1.254951,-0.21235 0.35186,-0.0435 1.700155,-0.0439 2.082136,-7e-4 0.529779,0.0599 1.245136,0.19182 1.585629,0.2923 0.508943,0.15019 0.894614,0.27379 1.00177,0.32105 0.07109,0.0314 0.231053,0.098 0.355465,0.14809 0.427994,0.17233 1.600846,0.80573 1.696545,0.91621 0.0089,0.0103 0.0816,0.061 0.161576,0.11268 0.126751,0.082 0.427148,0.31232 0.676533,0.51882 1.044267,0.86467 1.929674,1.97255 2.555949,3.19818 0.327876,0.64166 0.511211,1.09867 0.739533,1.84352 0.366051,1.19415 0.484377,2.90522 0.292742,4.23328 -0.05229,0.36233 -0.216763,1.14347 -0.292588,1.38955 -0.06578,0.21347 -0.231895,0.7147 -0.277805,0.83823 -0.154224,0.41497 -0.493751,1.1159 -0.754131,1.55687 -0.246198,0.41694 -0.759572,1.14207 -0.98876,1.3966 -0.442672,0.49163 -0.590555,0.64466 -0.863918,0.89399 -0.175381,0.15996 -0.335503,0.30616 -0.355827,0.32489 -0.220617,0.20329 -1.324901,0.98387 -1.391879,0.98387 -0.01186,0 -0.09722,0.0474 -0.189675,0.1053 -0.239435,0.14999 -0.958052,0.4969 -1.153712,0.55695 -0.04443,0.0136 -0.138955,0.0505 -0.210048,0.082 -0.07109,0.0315 -0.158345,0.0645 -0.193891,0.0735 -0.03555,0.009 -0.166424,0.0528 -0.290836,0.0974 -0.379648,0.13598 -1.022553,0.29252 -1.534968,0.37373 -0.115527,0.0183 -0.304935,0.0482 -0.420906,0.0665 -0.222634,0.035 -1.430572,0.0662 -1.841152,0.0476 z m 1.631912,-0.57878 c 0.609674,-0.0741 1.2584,-0.19218 1.502654,-0.27352 0.04443,-0.0148 0.168038,-0.0518 0.274679,-0.0822 0.725915,-0.20707 1.558078,-0.57732 2.235814,-0.99476 0.150354,-0.0926 0.301284,-0.18421 0.335397,-0.20357 0.03411,-0.0194 0.08872,-0.0593 0.121344,-0.0889 0.03262,-0.0295 0.07514,-0.0537 0.09447,-0.0537 0.01934,0 0.04,-0.0109 0.04593,-0.0242 0.0059,-0.0133 0.119835,-0.10628 0.253136,-0.20656 0.398875,-0.30006 0.447003,-0.34325 1.001957,-0.89914 0.467081,-0.46787 0.935474,-1.02763 1.150137,-1.37449 0.033,-0.0533 0.06836,-0.10421 0.07857,-0.1131 0.106936,-0.093 0.73668,-1.28618 0.869858,-1.64807 0.02289,-0.0622 0.06051,-0.15673 0.0836,-0.21005 0.172095,-0.39747 0.380572,-1.17338 0.494912,-1.84196 0.01824,-0.10664 0.05217,-0.30295 0.07541,-0.43625 0.05718,-0.32797 0.0578,-1.95173 8.55e-4,-2.32669 -0.09742,-0.64194 -0.181255,-1.0661 -0.271437,-1.37339 -0.08718,-0.29706 -0.278705,-0.88752 -0.314461,-0.96946 -0.01551,-0.0356 -0.05802,-0.13825 -0.09447,-0.22824 -0.301362,-0.74409 -0.819409,-1.61736 -1.385642,-2.33578 -0.2193,-0.27825 -1.064969,-1.15302 -1.265808,-1.30937 -0.04254,-0.0331 -0.202491,-0.15829 -0.355455,-0.27816 -0.297221,-0.23292 -0.703276,-0.51455 -0.940577,-0.65237 -0.34067,-0.19785 -0.419279,-0.2403 -0.712581,-0.38482 -0.267373,-0.13175 -0.400799,-0.19084 -0.725442,-0.32131 -0.529264,-0.21271 -1.305555,-0.43364 -1.801707,-0.51276 -1.417591,-0.22605 -2.175013,-0.22251 -3.562604,0.0166 -0.159959,0.0276 -0.367179,0.0706 -0.46049,0.0956 -0.463294,0.12408 -0.554855,0.15066 -0.781517,0.2269 -0.134468,0.0452 -0.306132,0.11015 -0.381474,0.14428 -0.07534,0.0341 -0.149879,0.062 -0.165635,0.062 -0.06992,0 -1.015037,0.45013 -1.03307,0.49202 -0.0059,0.0138 -0.0248,0.025 -0.04195,0.025 -0.01715,0 -0.110739,0.0509 -0.207983,0.1131 -0.09724,0.0622 -0.185525,0.11311 -0.196177,0.11311 -0.038,0 -0.946806,0.65275 -1.099894,0.79 -0.632286,0.56688 -1.078425,1.02765 -1.409675,1.4559 -0.1832,0.23684 -0.733635,1.03663 -0.733635,1.06597 0,0.009 -0.08725,0.17068 -0.19389,0.35852 -0.10664,0.18784 -0.193891,0.35517 -0.193891,0.37185 0,0.0167 -0.01417,0.0556 -0.03149,0.0864 -0.05944,0.10591 -0.194714,0.40752 -0.194714,0.43414 0,0.0146 -0.02829,0.0883 -0.06286,0.1636 -0.05277,0.11502 -0.203453,0.55612 -0.322759,0.94487 -0.04006,0.13052 -0.180985,0.81811 -0.225192,1.09871 -0.136769,0.86815 -0.137059,2.05976 -7.32e-4,2.90836 0.04588,0.28556 0.18665,0.97067 0.225751,1.09872 0.09749,0.31927 0.295308,0.9097 0.333897,0.99658 0.02495,0.0562 0.065,0.15217 0.08901,0.21332 0.184663,0.47042 0.639913,1.28958 1.024731,1.84388 0.448802,0.64646 1.162822,1.40266 1.819772,1.92729 0.130223,0.104 0.244039,0.19798 0.252925,0.20886 0.02978,0.0365 0.691904,0.47131 0.953296,0.62609 0.605714,0.35865 1.464956,0.72663 2.148956,0.92031 0.07998,0.0226 0.181772,0.053 0.226205,0.0675 0.250551,0.0817 1.002362,0.21683 1.583442,0.28467 0.399318,0.0466 1.46579,0.0402 1.890433,-0.0114 z m -1.292604,-4.78296 c -0.421667,-0.0579 -0.521881,-0.0793 -0.937139,-0.20007 -0.177686,-0.0517 -0.460425,-0.15375 -0.618871,-0.22344 -0.056,-0.0246 -0.111915,-0.0448 -0.124244,-0.0448 -0.0378,0 -0.729834,-0.35292 -0.825244,-0.42086 -0.04933,-0.0351 -0.100283,-0.0639 -0.113232,-0.0639 -0.03081,0 -0.765542,-0.49347 -0.916196,-0.61534 -0.570518,-0.46153 -0.768627,-0.63558 -1.113163,-0.97797 -0.472271,-0.46932 -0.72417,-0.75383 -1.071687,-1.21042 -0.300703,-0.39508 -0.41224,-0.47338 -0.630144,-0.44241 -0.07998,0.0114 -0.164865,0.0367 -0.188634,0.0563 -0.02377,0.0196 -0.144989,0.0364 -0.269379,0.0374 -0.208632,0.002 -0.232195,-0.005 -0.303943,-0.0886 -0.119684,-0.13911 -0.128858,-0.23003 -0.04071,-0.40353 0.06983,-0.13744 0.106198,-0.16669 0.371164,-0.2985 0.161564,-0.0804 0.364737,-0.20291 0.451495,-0.27232 0.172139,-0.13771 0.561658,-0.53647 0.561672,-0.57499 2.1e-5,-0.0522 0.151169,-0.19692 0.249414,-0.23874 0.149522,-0.0636 0.196369,-0.0559 0.302438,0.0502 0.125172,0.12517 0.131999,0.35305 0.01676,0.55946 -0.158032,0.28307 -0.13586,0.71655 0.05553,1.08563 0.210099,0.40517 1.267108,1.52128 1.962408,2.07214 0.663138,0.52537 1.427181,0.98275 1.969893,1.17923 0.133299,0.0482 0.271447,0.0991 0.306993,0.11298 0.74363,0.29049 1.809325,0.33636 2.649839,0.11407 0.106641,-0.0282 0.226825,-0.0594 0.267077,-0.0694 0.04025,-0.01 0.0811,-0.031 0.09077,-0.0466 0.0097,-0.0156 0.04018,-0.0284 0.06779,-0.0284 0.124613,0 0.945036,-0.46413 1.192737,-0.67475 0.05476,-0.0466 0.142012,-0.11734 0.193891,-0.15729 0.205787,-0.15844 0.714672,-0.69023 0.997359,-1.04224 0.548193,-0.68263 1.035154,-1.52707 1.22992,-2.1328 0.03143,-0.0977 0.06841,-0.20682 0.08217,-0.24236 0.05528,-0.14274 0.103019,-0.47558 0.08771,-0.61143 -0.01094,-0.097 -0.06496,-0.2203 -0.165299,-0.37713 -0.244632,-0.38236 -0.23519,-0.58078 0.03384,-0.71102 0.126353,-0.0612 0.160735,-0.0654 0.269179,-0.0329 0.07076,0.0212 0.177431,0.0938 0.247593,0.16855 0.148216,0.15786 0.507011,0.44903 0.553335,0.44903 0.01822,0 0.03797,0.0109 0.04389,0.0242 0.0059,0.0133 0.174253,0.10383 0.374063,0.20112 0.304654,0.14832 0.371664,0.19452 0.41517,0.2862 0.07047,0.14852 0.03787,0.35891 -0.07153,0.46159 -0.0735,0.069 -0.111641,0.0771 -0.362223,0.0772 -0.446848,2.4e-4 -0.543185,0.0845 -0.868069,0.75928 -0.361515,0.75091 -0.461205,0.93177 -0.801534,1.45418 -0.427301,0.65592 -0.894012,1.2039 -1.472454,1.72886 -0.252371,0.22904 -0.330621,0.28854 -0.676522,0.51443 -0.610217,0.3985 -1.063653,0.59527 -1.745016,0.75727 -0.439257,0.10443 -1.187427,0.12735 -1.728859,0.053 z m -2.980393,-8.38858 c -0.121722,-0.0602 -0.195384,-0.12882 -0.364921,-0.33971 -0.07559,-0.094 -0.15504,-0.32787 -0.198598,-0.58453 -0.08678,-0.51136 0.160539,-1.12864 0.533581,-1.33174 0.190748,-0.10385 0.452867,-0.0933 0.640764,0.0259 0.176991,0.11224 0.285542,0.24838 0.403405,0.50594 0.07913,0.17291 0.0881,0.22959 0.08931,0.56386 0.0018,0.49902 -0.08594,0.75306 -0.350059,1.01344 -0.219485,0.21637 -0.501833,0.2714 -0.753485,0.14683 z m 5.397219,0.0248 c -0.225641,-0.0825 -0.481819,-0.40201 -0.561583,-0.7004 -0.216405,-0.80956 0.187544,-1.64807 0.793956,-1.64807 0.476485,0 0.834125,0.50433 0.836437,1.1795 0.0027,0.80356 -0.516115,1.37105 -1.06881,1.16897 z"
       style="fill:#606060;fill-opacity:1;stroke-width:0.03231512;opacity:0.832" />
    <g
       id="g905"
       transform="matrix(0.12213588,0,0,0.12213588,-100.77447,197.15995)"
       style="opacity:0.495">
      <path
         style="fill:#b9b9b9;fill-opacity:1;stroke-width:0.26458332"
         d="m 51.329164,235.79692 c -0.14552,-0.0617 -1.03849,-0.17381 -1.98437,-0.24905 -4.6678,-0.37133 -5.84448,-0.51413 -5.97487,-0.72511 -0.078,-0.12617 -0.49413,-0.22939 -0.92478,-0.22939 -0.43065,0 -1.64401,-0.2285 -2.69636,-0.50778 -1.05235,-0.27928 -2.48038,-0.59067 -3.17339,-0.69199 -0.69301,-0.10131 -1.32512,-0.28953 -1.40468,-0.41826 -0.0796,-0.12873 -0.37736,-0.23406 -0.66179,-0.23406 -0.28443,0 -0.72389,-0.10618 -0.97658,-0.23595 -0.25268,-0.12977 -1.53099,-0.56336 -2.84068,-0.96353 -2.08798,-0.63796 -3.81162,-1.29527 -5.16806,-1.97083 -0.22305,-0.11109 -0.7886,-0.28611 -1.25677,-0.38894 -0.468163,-0.10283 -0.851208,-0.29656 -0.851208,-0.43052 0,-0.13396 -0.148828,-0.24781 -0.330729,-0.25301 -0.181901,-0.005 -1.274877,-0.47524 -2.428836,-1.04454 -1.153956,-0.5693 -2.225519,-0.96268 -2.38125,-0.87417 -0.155728,0.0885 -0.195649,0.0643 -0.08871,-0.0539 0.106936,-0.11814 -0.07166,-0.35691 -0.396875,-0.53059 -2.512346,-1.34169 -8.347242,-4.98127 -8.661101,-5.40245 -0.07276,-0.0976 -0.697627,-0.52957 -1.388589,-0.95986 -0.690965,-0.43029 -1.256512,-0.85146 -1.256771,-0.93593 -2.62e-4,-0.0845 -0.566021,-0.55331 -1.257245,-1.04187 -0.691224,-0.48855 -1.56814,-1.19335 -1.948701,-1.5662 -0.380561,-0.37286 -1.675908,-1.57089 -2.878548,-2.6623 -1.202639,-1.09141 -2.522063,-2.34156 -2.932054,-2.77813 -2.252567,-2.39856 -2.887596,-3.11762 -4.67323,-5.29166 -1.075703,-1.30969 -2.186141,-2.63616 -2.467636,-2.94771 -0.281496,-0.31155 -0.51181,-0.6524 -0.51181,-0.75744 0,-0.38372 -2.326209,-3.27316 -2.497352,-3.10201 -0.09705,0.097 -0.09789,-0.0283 -0.0019,-0.27851 0.09602,-0.25023 0.06487,-0.45496 -0.06922,-0.45496 -0.134091,0 -0.504814,-0.48899 -0.823825,-1.08665 -1.072737,-2.00973 -1.501585,-2.74907 -1.671743,-2.8821 -0.20474,-0.16006 -3.370057,-6.43115 -4.273527,-8.46666 -1.203005,-2.71036 -2.041072,-4.893 -2.040308,-5.31372 5.29e-4,-0.23041 -0.08084,-0.50052 -0.18057,-0.60025 -0.267433,-0.26743 -0.868413,-2.08098 -0.873019,-2.63446 -0.0024,-0.29389 -0.121888,-0.40577 -0.309448,-0.28985 -0.179667,0.11104 -0.234003,0.0732 -0.131942,-0.092 0.09544,-0.15442 -0.06322,-1.03602 -0.352581,-1.95911 -0.289357,-0.92309 -0.527639,-1.99874 -0.529517,-2.39033 -0.0019,-0.39159 -0.122489,-0.78557 -0.26801,-0.87551 -0.145521,-0.0899 -0.264583,-0.5494 -0.264583,-1.02103 0,-0.47163 -0.106868,-0.97062 -0.237483,-1.10887 -0.130616,-0.13824 -0.29682,-0.7276 -0.369342,-1.30968 -0.07252,-0.58209 -0.352607,-2.66568 -0.622412,-4.63021 -0.386791,-2.81634 -0.488647,-5.19489 -0.481534,-11.24479 0.0092,-7.84265 0.226546,-10.74275 1.169799,-15.61042 0.140995,-0.7276 0.328507,-1.73964 0.416692,-2.24896 0.08819,-0.50932 0.262319,-1.16417 0.386963,-1.45521 0.124643,-0.29104 0.299716,-0.88635 0.38905,-1.32291 0.08933,-0.43657 0.212471,-1.03188 0.273639,-1.32292 0.31563,-1.5018 1.083651,-3.9797 1.25744,-4.05694 0.109141,-0.0485 0.198438,-0.35212 0.198438,-0.67469 0,-0.32257 0.09504,-0.6996 0.211203,-0.83785 0.11616,-0.13824 0.425876,-0.9062 0.688258,-1.70656 0.26238,-0.80037 0.631024,-1.8124 0.819206,-2.24896 0.188182,-0.43656 0.598165,-1.38906 0.911074,-2.11667 0.312907,-0.7276 1.03324,-2.23241 1.600737,-3.34402 0.5675,-1.11161 0.959051,-2.09387 0.870114,-2.18281 -0.08894,-0.0889 -0.0228,-0.1617 0.146976,-0.1617 0.169776,0 0.308682,-0.12738 0.308682,-0.28306 0,-0.15568 0.357187,-0.80221 0.79375,-1.43674 0.436562,-0.63452 0.79375,-1.23043 0.79375,-1.32425 0,-0.0938 0.535781,-0.99882 1.190625,-2.0111 0.654844,-1.01229 1.190625,-1.94272 1.190625,-2.06764 0,-0.12491 0.413956,-0.68675 0.919903,-1.24852 0.505947,-0.56177 0.922666,-1.17023 0.926042,-1.35213 0.0034,-0.1819 0.09544,-0.33154 0.204576,-0.33254 0.10914,-10e-4 0.496094,-0.44288 0.859896,-0.98196 0.865465,-1.28245 3.219802,-4.120819 4.70445,-5.671642 0.749861,-0.783281 1.104506,-1.351836 0.974474,-1.562235 -0.128455,-0.207844 -0.09651,-0.264083 0.08594,-0.151321 0.162287,0.100301 1.084815,-0.611375 2.091399,-1.613397 3.100517,-3.08646 5.429742,-5.176385 7.62186,-6.838808 2.575859,-1.953437 8.433811,-5.964973 9.525,-6.522736 4.793671,-2.450297 8.226192,-4.148962 9.410598,-4.657061 0.79052,-0.339127 1.64406,-0.72608 1.89675,-0.859896 0.25268,-0.133816 0.63964,-0.243301 0.85989,-0.243301 0.22026,0 0.40047,-0.12609 0.40047,-0.280198 0,-0.154109 0.0972,-0.220144 0.21593,-0.146745 0.22949,0.14183 2.03135,-0.409226 2.33677,-0.714645 0.0997,-0.09973 0.40122,-0.181329 0.66999,-0.181329 0.26876,0 0.6954,-0.104447 0.94809,-0.232104 0.70249,-0.3549 2.29596,-0.826229 2.79332,-0.826229 0.24433,0 0.44423,-0.106467 0.44423,-0.236594 0,-0.130127 0.26789,-0.241525 0.59531,-0.247553 0.56897,-0.01047 1.54781,-0.205126 4.16719,-0.828688 2.55458,-0.608136 4.2412,-0.86857 9.525,-1.470777 0.80037,-0.09122 3.83646,-0.222044 6.74688,-0.290721 4.3052,-0.10159 6.17948,-0.02041 10.05416,0.435485 2.61938,0.308194 5.38758,0.622315 6.15157,0.698046 0.76398,0.07573 1.38906,0.230059 1.38906,0.342952 0,0.112892 0.44648,0.279948 0.99219,0.371235 2.93119,0.490342 5.75136,1.153062 6.4787,1.522453 0.25269,0.128331 0.64125,0.233328 0.86348,0.233328 0.22224,0 0.6108,0.113484 0.86349,0.252186 0.25269,0.138702 1.41193,0.567874 2.5761,0.953715 1.16416,0.38584 2.8533,1.046263 3.75364,1.467606 0.90033,0.421342 1.7203,0.766077 1.82215,0.766077 0.10185,0 1.21068,0.502191 2.46407,1.11598 1.25339,0.613789 2.45748,1.078719 2.67576,1.033179 0.21828,-0.04554 0.31,0.0055 0.20382,0.113357 -0.10617,0.107887 0.32247,0.457145 0.95254,0.776129 0.63008,0.318985 1.42805,0.777814 1.77328,1.019622 0.34523,0.241807 0.829396,0.439649 1.075936,0.439649 0.24653,0 0.48793,0.09526 0.53644,0.211692 0.0485,0.116431 1.69554,1.329874 3.66007,2.696542 1.96453,1.366667 3.86831,2.759687 4.23063,3.0956 0.36231,0.335912 0.79887,0.61075 0.97014,0.61075 0.17126,0 0.35107,0.09981 0.39957,0.221799 0.0485,0.12199 1.0407,1.042353 2.20486,2.045248 3.34481,2.881456 6.05556,5.592601 8.4072,8.4084 1.19688,1.433111 2.44388,2.921392 2.77113,3.30729 0.32724,0.3859 0.59513,0.79796 0.59531,0.91569 1.8e-4,0.11773 0.11939,0.14047 0.26491,0.0505 0.14552,-0.0899 0.26458,0.0221 0.26458,0.24897 0,0.22687 0.11906,0.41249 0.26458,0.41249 0.14552,0 0.26459,0.127 0.26459,0.28223 0,0.23615 1.13224,1.92084 1.58852,2.3636 0.075,0.0728 0.37332,0.58681 0.66297,1.14233 0.28965,0.55552 0.73499,1.23515 0.98965,1.51029 0.25466,0.27514 0.46302,0.6243 0.46302,0.7759 0,0.15161 0.11907,0.27565 0.26459,0.27565 0.14552,0 0.26458,0.17859 0.26458,0.39687 0,0.21828 0.10616,0.39688 0.2359,0.39688 0.12975,0 0.31626,0.32016 0.41447,0.71147 0.0982,0.3913 0.39079,1.01638 0.65017,1.38906 0.25938,0.37267 0.93326,1.57056 1.49751,2.66197 0.56424,1.0914 1.11801,2.02406 1.23059,2.07256 0.11258,0.0485 0.20469,0.30938 0.20469,0.5797 0,0.27033 0.11907,0.56509 0.26459,0.65503 0.14552,0.0899 0.26531,0.36485 0.26621,0.61092 7.9e-4,0.24608 0.17949,0.78844 0.39688,1.20526 0.21738,0.41681 0.39524,0.92283 0.39524,1.12448 0,0.20164 0.10518,0.36663 0.23374,0.36663 0.12856,0 0.29277,0.26789 0.36492,0.59531 0.0722,0.32742 0.56628,1.78594 1.09808,3.24115 0.97508,2.66821 2.22971,7.00002 2.45223,8.46666 0.0662,0.43657 0.22399,1.03188 0.35057,1.32292 0.12658,0.29104 0.28919,0.94588 0.36135,1.45521 0.0722,0.50932 0.31512,1.9976 0.53993,3.30729 0.56033,3.26444 1.06887,9.45613 1.06481,12.96458 -0.006,4.99439 -0.82988,13.22151 -1.7227,17.19792 -1.05179,4.68444 -1.96354,7.94735 -3.03119,10.84792 -0.53564,1.4552 -1.04121,2.88395 -1.12348,3.175 -0.0823,0.29104 -0.36736,0.91974 -0.63351,1.39711 -0.26615,0.47737 -0.48392,0.987 -0.48392,1.13251 0,0.32846 -2.83606,6.03922 -3.80251,7.65683 -0.39125,0.65485 -0.83847,1.51805 -0.99384,1.91823 -0.15537,0.40018 -0.38991,0.72761 -0.5212,0.72761 -0.13128,0 -0.2387,0.12089 -0.2387,0.26865 0,0.31847 -1.8957,3.26381 -2.18281,3.39141 -0.10914,0.0485 -0.19844,0.24695 -0.19844,0.44098 0,0.19402 -0.0893,0.39246 -0.19843,0.44097 -0.10914,0.0485 -0.96778,1.10023 -1.90809,2.33715 -2.70236,3.55483 -4.13642,5.18368 -7.81535,8.87693 -3.03744,3.04926 -9.86228,8.85016 -10.41233,8.85016 -0.11193,0 -0.44545,0.2254 -0.74116,0.50089 -0.55334,0.51551 -5.0358,3.46786 -5.26515,3.46786 -0.0706,0 -0.631986,0.31823 -1.247556,0.70718 -1.30429,0.82413 -6.11882,3.2952 -7.38972,3.79279 -1.25579,0.49168 -2.56916,1.04156 -3.78367,1.58413 -0.58208,0.26004 -2.48708,0.91662 -4.23333,1.45906 -1.74625,0.54244 -3.41312,1.08708 -3.70417,1.21029 -0.29104,0.12323 -1.12447,0.34167 -1.85208,0.48543 -0.7276,0.14376 -1.8587,0.3885 -2.51354,0.54386 -0.65484,0.15536 -1.66688,0.34932 -2.24896,0.43102 -0.58208,0.0817 -1.23693,0.2142 -1.45521,0.29444 -0.21828,0.0802 -0.81359,0.1882 -1.32291,0.23994 -1.22443,0.12436 -3.20757,0.42366 -3.70417,0.55903 -0.55162,0.15038 -15.1524,0.35331 -15.47813,0.21513 z"
         id="path894"
         inkscape:connector-curvature="0" />
      <path
         style="fill:#333333;fill-opacity:1;stroke-width:0.26458332"
         d="m 49.741664,235.10604 c -1.74625,-0.13494 -3.6742,-0.36503 -4.28435,-0.5113 -0.61014,-0.14628 -1.52585,-0.26596 -2.0349,-0.26596 -0.50906,0 -0.99914,-0.11906 -1.08908,-0.26458 -0.0899,-0.14552 -0.535,-0.26458 -0.98902,-0.26458 -0.45402,0 -1.19113,-0.11227 -1.63803,-0.24949 -0.44689,-0.13722 -1.64597,-0.44728 -2.66462,-0.68903 -1.9309,-0.45824 -3.33383,-0.85008 -4.23333,-1.18238 -0.29104,-0.10751 -1.5412,-0.52566 -2.77812,-0.92921 -1.23693,-0.40355 -2.71781,-0.95393 -3.29085,-1.22306 -0.57303,-0.26913 -1.13532,-0.48933 -1.24953,-0.48933 -0.33843,0 -7.069399,-3.14311 -7.365875,-3.43959 -0.135144,-0.13514 -0.498216,-0.34644 -2.624984,-1.52768 -1.950725,-1.08346 -6.888747,-4.38582 -8.752099,-5.85308 -0.945886,-0.74481 -1.92218,-1.50747 -2.169539,-1.69479 -2.047121,-1.55022 -8.189783,-7.53429 -9.874493,-9.61954 -0.569196,-0.70452 -1.098468,-1.34048 -1.176163,-1.41324 -0.49571,-0.46423 -2.625532,-3.14249 -2.87664,-3.61739 -0.167127,-0.31608 -0.458568,-0.73279 -0.647645,-0.92604 -0.324403,-0.33156 -2.422916,-3.47484 -3.999709,-5.99101 -2.16095,-3.44834 -5.181579,-9.65397 -6.398786,-13.14577 -0.253635,-0.7276 -0.560539,-1.43602 -0.682006,-1.57427 -0.12147,-0.13824 -0.220853,-0.50138 -0.220853,-0.80698 0,-0.30559 -0.09476,-0.66873 -0.210572,-0.80698 -0.288758,-0.34468 -0.715457,-1.73058 -1.258577,-4.08781 -0.251467,-1.09141 -0.550594,-2.2225 -0.664727,-2.51354 -0.114133,-0.29104 -0.282413,-0.88636 -0.373955,-1.32292 -0.09154,-0.43656 -0.284085,-1.32953 -0.427874,-1.98437 -0.626016,-2.85101 -1.139232,-7.03309 -1.572091,-12.81062 -0.393956,-5.25827 0.259093,-13.73241 1.602268,-20.79147 0.591943,-3.11095 2.156606,-8.71938 3.100213,-11.1125 0.08607,-0.21828 0.167807,-0.4564 0.18164,-0.52916 0.07093,-0.37309 1.051245,-2.91225 1.481164,-3.83646 0.774522,-1.66502 1.846678,-4.10769 1.846678,-4.20726 0,-0.0498 0.654843,-1.24683 1.455208,-2.6601 0.800364,-1.41327 1.455208,-2.63083 1.455208,-2.70571 0,-0.12147 3.531854,-5.64357 4.030623,-6.30193 2.892801,-3.818383 4.06617,-5.347186 4.291648,-5.591661 0.152177,-0.164996 1.050594,-1.165357 1.996479,-2.223023 1.660607,-1.856849 4.987097,-5.177184 6.35,-6.338253 0.719035,-0.612552 1.011788,-0.856599 3.184041,-2.654268 5.759374,-4.766236 12.983033,-9.03934 20.893048,-12.359131 1.7126,-0.718773 1.97984,-0.821244 3.30729,-1.268181 0.7276,-0.244975 1.56104,-0.53997 1.85208,-0.655542 0.86122,-0.34199 3.58605,-1.121691 5.29167,-1.514194 0.87312,-0.200926 2.06375,-0.485326 2.64583,-0.632 1.76814,-0.445539 3.52749,-0.751548 7.54063,-1.311562 3.37995,-0.471657 4.82817,-0.521478 12.17083,-0.418704 4.58391,0.06416 8.75109,0.186443 9.26042,0.271739 0.50932,0.0853 1.64041,0.27116 2.51354,0.413031 0.87312,0.141871 2.15304,0.382601 2.84427,0.534955 0.69122,0.152354 1.76278,0.385977 2.38125,0.519162 3.78483,0.815058 9.05446,2.362809 10.97732,3.224169 0.61688,0.276334 1.30149,0.502426 1.52136,0.502426 0.21987,0 0.39976,0.119062 0.39976,0.264583 0,0.145521 0.23109,0.264583 0.51355,0.264583 0.28245,0 0.58713,0.119063 0.67707,0.264584 0.0899,0.145521 0.33212,0.264583 0.53819,0.264583 0.42176,0 4.9867,2.207062 8.19306,3.961194 3.008366,1.645812 9.946576,6.451468 11.668956,8.082345 0.16053,0.152001 1.0535,0.897248 1.98437,1.656102 2.55156,2.080037 9.16145,8.938402 10.25647,10.642025 0.23384,0.363798 0.75354,1.018648 1.1549,1.455208 0.40135,0.43656 0.73028,0.87454 0.73095,0.97329 8e-4,0.0987 0.15485,0.33687 0.34262,0.52917 0.39114,0.40056 2.62116,3.68306 3.83252,5.64129 2.46236,3.98054 5.8153,10.89242 7.0592,14.55208 0.24731,0.7276 0.54721,1.56104 0.66645,1.85208 0.42322,1.03299 1.83846,5.84866 2.25493,7.67292 0.23256,1.01865 0.4888,2.09021 0.56942,2.38125 0.2527,0.91228 0.61415,3.29451 1.1441,7.54062 0.57183,4.58158 0.71691,13.47371 0.27844,17.06563 -1.02723,8.41501 -1.19892,9.36703 -2.74369,15.21354 -0.42373,1.60368 -1.78665,5.76544 -2.29616,7.01146 -0.17852,0.43656 -0.41731,1.03187 -0.53066,1.32292 -0.11335,0.29104 -0.63431,1.45045 -1.15768,2.57648 -0.52338,1.12602 -0.9516,2.22735 -0.9516,2.44739 0,0.22005 -0.0893,0.40332 -0.19843,0.40727 -0.10914,0.004 -0.49121,0.65046 -0.84903,1.43667 -0.35782,0.78621 -0.76317,1.35989 -0.90077,1.27484 -0.13761,-0.085 -0.16493,-0.0167 -0.0607,0.15195 0.19205,0.31075 -0.8418,2.42102 -1.18608,2.42102 -0.10295,0 -0.25502,0.2703 -0.33795,0.60068 -0.12606,0.50229 -1.33229,2.52657 -2.0858,3.50036 -0.1126,0.14552 -0.76337,1.09802 -1.44616,2.11667 -1.439,2.14685 -3.02605,4.17406 -5.90333,7.54062 -1.48071,1.73251 -4.62801,4.82333 -8.33069,8.18119 -1.21948,1.10593 -4.42901,3.60176 -5.07259,3.94461 -0.31608,0.16839 -0.73662,0.46809 -0.93454,0.66601 -0.505,0.505 -4.55175,3.0919 -6.295986,4.02473 -0.80036,0.42804 -1.4949,0.86755 -1.5434,0.97669 -0.0485,0.10914 -0.25687,0.19844 -0.46302,0.19844 -0.20616,0 -0.37483,0.11906 -0.37483,0.26458 0,0.14552 -0.13696,0.26459 -0.30436,0.26459 -0.41726,0 -3.24642,1.38597 -3.35571,1.64392 -0.0485,0.11449 -0.23458,0.20816 -0.4135,0.20816 -0.17892,0 -0.94232,0.29766 -1.69645,0.66146 -0.75412,0.3638 -1.4924,0.66146 -1.64061,0.66146 -0.14821,0 -0.47621,0.10905 -0.7289,0.24234 -0.82898,0.43727 -2.281,0.99789 -4.1636,1.60756 -1.01864,0.32989 -2.0902,0.69295 -2.38125,0.80681 -0.29104,0.11386 -1.77932,0.52344 -3.30729,0.91017 -1.52797,0.38674 -3.14376,0.81396 -3.59066,0.94939 -0.44689,0.13542 -1.18401,0.24623 -1.63803,0.24623 -0.45402,0 -0.88986,0.10413 -0.96852,0.23141 -0.0787,0.12728 -0.7703,0.30108 -1.53697,0.38623 -0.76667,0.0851 -2.34644,0.27714 -3.51061,0.42667 -3.0226,0.38822 -14.24405,0.5517 -17.99167,0.26211 z m 18.7632,-4.51619 c 1.75847,-0.28493 3.733,-0.58096 4.38785,-0.65784 0.65484,-0.0769 1.42875,-0.23557 1.71979,-0.35264 0.29104,-0.11707 1.18401,-0.35616 1.98437,-0.53132 1.93003,-0.42237 5.54533,-1.45934 6.48229,-1.85929 0.29105,-0.12423 1.42214,-0.55157 2.51355,-0.94963 3.38306,-1.23388 8.72295,-3.77269 11.88882,-5.65246 1.91858,-1.13917 5.672576,-3.52978 5.838256,-3.71789 0.0728,-0.0826 0.76154,-0.59602 1.53063,-1.14091 0.76909,-0.54489 1.74158,-1.29653 2.16109,-1.67032 0.41951,-0.37378 0.84541,-0.6984 0.94643,-0.72138 0.1828,-0.0416 0.8997,-0.6975 4.12201,-3.77146 3.21796,-3.06981 7.70551,-8.03937 8.81701,-9.76405 0.28135,-0.43656 0.63854,-0.92929 0.79375,-1.09496 0.59068,-0.63044 1.20825,-1.43016 1.20825,-1.56461 0,-0.077 0.22233,-0.46258 0.49407,-0.85687 0.27173,-0.39429 1.07541,-1.67187 1.78593,-2.83907 0.71053,-1.16719 1.43693,-2.35781 1.61423,-2.64583 1.02328,-1.66231 4.05309,-8.12914 4.84623,-10.34378 0.30668,-0.85633 0.65957,-1.79509 0.7842,-2.08613 0.30643,-0.71561 1.50923,-4.60104 1.67908,-5.42396 0.0751,-0.3638 0.27179,-1.13771 0.43711,-1.71979 1.80356,-6.35021 2.87744,-18.93548 2.15605,-25.26771 -0.87235,-7.65733 -0.95683,-8.22949 -1.64076,-11.1125 -0.15535,-0.65484 -0.34277,-1.54781 -0.41649,-1.98437 -0.0737,-0.43657 -0.26502,-1.06146 -0.42509,-1.38867 -0.16008,-0.3272 -0.22565,-0.66031 -0.14571,-0.74025 0.0799,-0.0799 -0.19727,-1.06238 -0.61601,-2.18321 -0.41874,-1.12083 -0.76177,-2.24623 -0.7623,-2.50089 -5.3e-4,-0.25467 -0.0953,-0.46303 -0.21067,-0.46303 -0.11534,0 -0.35963,-0.56055 -0.54287,-1.24566 -0.32789,-1.22596 -0.50907,-1.68053 -1.82349,-4.57517 -0.83051,-1.82894 -2.7374,-5.64887 -3.44897,-6.90906 -1.10734,-1.96107 -1.25804,-2.2063 -1.55695,-2.53368 -0.16827,-0.18429 -0.46523,-0.69491 -0.6599,-1.13471 -0.19467,-0.43979 -0.44395,-0.79963 -0.55395,-0.79963 -0.11,0 -0.19999,-0.16867 -0.19999,-0.37482 0,-0.20616 -0.0956,-0.41452 -0.21246,-0.46303 -0.11686,-0.0485 -0.9679,-1.15975 -1.89121,-2.46944 -0.9233,-1.30969 -1.75043,-2.44078 -1.83806,-2.51354 -0.0876,-0.0728 -0.746,-0.84667 -1.46305,-1.71979 -1.65015,-2.009315 -1.78254,-2.151306 -4.72224,-5.064638 -3.72233,-3.688943 -4.49395,-4.378804 -7.08991,-6.338639 -0.93543,-0.70621 -1.74047,-1.376175 -1.78898,-1.48881 -0.0485,-0.112633 -0.23058,-0.204791 -0.40461,-0.204791 -0.17403,0 -0.48804,-0.238125 -0.69782,-0.529166 -0.20977,-0.291042 -0.48212,-0.529167 -0.60523,-0.529167 -0.1231,0 -0.61407,-0.297656 -1.09104,-0.661458 -0.47697,-0.363802 -0.93331,-0.661458 -1.01409,-0.661458 -0.12945,0 -2.538666,-1.523427 -3.243056,-2.050687 -0.14568,-0.10905 -0.74099,-0.444148 -1.32292,-0.744664 -0.58191,-0.300516 -1.89147,-0.976195 -2.91012,-1.501509 -2.19264,-1.130741 -3.89467,-1.888288 -7.8052,-3.47397 -0.94589,-0.383547 -1.87024,-0.697016 -2.05412,-0.696597 -0.18387,4.23e-4 -0.54106,-0.11455 -0.79375,-0.255485 -0.65456,-0.36508 -2.83859,-1.069612 -4.69276,-1.513807 -4.23652,-1.014922 -5.79775,-1.308741 -10.31875,-1.941952 -3.47914,-0.487287 -4.86638,-0.541324 -11.24479,-0.438016 -7.26933,0.117738 -10.02245,0.347355 -13.75833,1.147481 -1.09141,0.233749 -2.46063,0.518603 -3.04271,0.633007 -2.51725,0.494749 -7.41046,1.923349 -8.99584,2.626387 -0.29104,0.129063 -1.18401,0.469938 -1.98437,0.757501 -2.70107,0.970467 -8.589448,3.769006 -10.234133,4.863924 -0.6083,0.404967 -1.172929,0.736303 -1.25473,0.736303 -0.167082,0 -5.238229,3.20284 -5.444472,3.438626 -0.07276,0.08318 -1.441979,1.153588 -3.042708,2.378675 -1.60073,1.22509 -3.429717,2.709323 -4.064416,3.298296 -3.479247,3.228591 -7.37162,7.384654 -9.257948,9.885144 -0.514445,0.68193 -1.012299,1.29942 -1.106342,1.37218 -0.317262,0.24546 -4.674674,6.73551 -5.41805,8.06979 -1.724478,3.09525 -3.790479,7.31755 -4.725382,9.65728 -0.552392,1.38245 -1.106223,2.75167 -1.230733,3.04271 -0.124511,0.29104 -0.547757,1.60073 -0.940546,2.91042 -0.39279,1.30969 -0.803183,2.61937 -0.911987,2.91042 -0.260583,0.69705 -0.667716,2.30137 -1.040731,4.10104 -0.165889,0.80036 -0.416227,1.93146 -0.556305,2.51354 -0.395581,1.64381 -0.783003,5.12503 -1.137558,10.22169 -0.433482,6.2312 0.01884,13.21489 1.28296,19.80852 0.23714,1.23692 0.496205,2.69619 0.575696,3.2428 0.07949,0.54662 0.251016,1.05966 0.381164,1.14009 0.130149,0.0804 0.236635,0.43128 0.236635,0.77965 0,0.34837 0.111004,0.90688 0.246674,1.24115 0.135671,0.33427 0.44322,1.32214 0.683443,2.19527 0.240223,0.87312 0.545938,1.79424 0.679368,2.04693 0.133429,0.25268 0.242599,0.69917 0.242599,0.99218 0,0.29302 0.119062,0.53276 0.264583,0.53276 0.145521,0 0.264584,0.2311 0.264584,0.51355 0,0.28245 0.119062,0.58714 0.264583,0.67708 0.145521,0.0899 0.264583,0.34686 0.264583,0.57094 0,0.42318 0.252987,1.03717 1.752994,4.2545 0.491062,1.05326 0.89284,2.03553 0.89284,2.18281 0,0.14728 0.09,0.26779 0.199995,0.26779 0.109998,0 0.365903,0.38695 0.568677,0.85989 0.202777,0.47295 0.785853,1.57427 1.295726,2.4474 0.509873,0.87312 1.062307,1.82562 1.227632,2.11666 0.402881,0.70924 3.359843,5.18826 3.75547,5.68855 4.150119,5.248 4.747482,5.93122 8.310975,9.5055 1.911321,1.91711 4.070064,3.86125 5.805911,5.22874 0.472895,0.37254 2.582537,2.07005 3.246451,2.61224 0.256325,0.20933 0.518512,0.3806 0.582636,0.3806 0.06412,0 0.866436,0.52236 1.782913,1.1608 4.203158,2.92803 9.336776,5.64405 15.548919,8.22641 1.2325,0.51234 2.39498,0.93154 2.58327,0.93154 0.1883,0 0.5491,0.10517 0.80179,0.23371 0.84511,0.42991 1.77636,0.78347 2.4438,0.9278 0.85968,0.18591 3.54696,0.85181 4.89479,1.21291 2.74433,0.73525 8.40127,1.61894 11.90625,1.85994 4.78186,0.32878 13.4118,0.0449 17.1757,-0.56496 z m -13.07465,-39.1368 c -0.65485,-0.12091 -2.32172,-0.41541 -3.70417,-0.65445 -1.38245,-0.23903 -2.75167,-0.53591 -3.04271,-0.65972 -0.29104,-0.12382 -0.94588,-0.35049 -1.45521,-0.50371 -1.8042,-0.54278 -4.90747,-1.6343 -5.82083,-2.04737 -1.82624,-0.82592 -5.42653,-2.60031 -5.55625,-2.73837 -0.0728,-0.0774 -0.42995,-0.28645 -0.79375,-0.46447 -1.4519,-0.71047 -4.9395,-2.88252 -5.51074,-3.43205 -0.19324,-0.18591 -0.60996,-0.47566 -0.92604,-0.6439 -0.31607,-0.16824 -1.70577,-1.20411 -3.08822,-2.30192 -1.382449,-1.09781 -2.67092,-2.12024 -2.863267,-2.27206 -0.744942,-0.58798 -4.207621,-3.79716 -5.86477,-5.43541 -3.374575,-3.33611 -6.009629,-6.31 -8.205298,-9.26042 -1.918422,-2.57787 -2.674059,-3.39268 -3.517427,-3.79289 -0.98426,-0.46706 -2.445734,-0.58773 -2.67259,-0.22066 -0.187542,0.30344 -2.74664,0.83399 -3.818499,0.79164 -1.08177,-0.0427 -2.426901,-1.28181 -2.426901,-2.23554 0,-1.13872 1.355693,-3.2738 2.078736,-3.2738 0.332187,0 3.041981,-1.43317 4.093702,-2.1651 1.822165,-1.26811 3.66313,-2.99259 5.126128,-4.80178 0.84355,-1.04317 1.680268,-2.05171 1.859372,-2.24121 0.516187,-0.54614 2.334099,-0.50606 2.965543,0.0654 0.80155,0.72539 0.747162,2.87643 -0.116189,4.59533 -0.550005,1.09503 -0.661458,1.69494 -0.661458,3.56034 0,3.74313 1.158761,6.18252 4.804904,10.11516 0.269838,0.29104 1.174359,1.29241 2.010043,2.22526 2.850372,3.1818 7.004911,7.16486 9.523071,9.13001 0.90951,0.70977 1.65365,1.39199 1.65365,1.51605 0,0.12405 0.15784,0.22555 0.35075,0.22555 0.19292,0 0.63039,0.29766 0.97217,0.66146 0.34177,0.3638 0.72469,0.66146 0.85093,0.66146 0.12624,0 0.49046,0.24309 0.80937,0.54021 0.31892,0.29711 1.11761,0.85235 1.77488,1.23386 0.65726,0.38152 1.25455,0.7635 1.32732,0.84886 0.58516,0.68648 6.9079,3.90525 10.45104,5.32041 0.92686,0.3702 4.14654,1.2785 6.48229,1.82871 3.3557,0.79048 10.07318,1.06746 12.74596,0.52556 3.906,-0.79194 6.35862,-1.514 8.68529,-2.55699 0.80036,-0.35878 1.75286,-0.78409 2.11667,-0.94513 1.19327,-0.5282 5.65047,-3.43957 7.54062,-4.92541 2.6034,-2.04652 7.05181,-6.62208 9.12813,-9.38903 0.50932,-0.67874 1.0684,-1.3928 1.24241,-1.5868 0.45507,-0.50738 4.08801,-6.13183 4.97053,-7.69529 0.98561,-1.7461 1.537636,-2.84423 2.394126,-4.7625 1.10339,-2.47127 1.13672,-2.55771 1.58103,-4.10105 0.23042,-0.80036 0.54208,-1.84684 0.69256,-2.3255 0.15049,-0.47867 0.27361,-1.79706 0.27361,-2.92976 0,-1.74837 -0.1086,-2.254 -0.71897,-3.34727 -0.39544,-0.70829 -0.92739,-1.51151 -1.18211,-1.78492 -0.84041,-0.90208 -0.92049,-2.90752 -0.15473,-3.87488 0.16183,-0.20445 0.68747,-0.53609 1.16808,-0.73698 1.44115,-0.60241 2.44589,-0.2276 4.32486,1.61334 0.92426,0.90555 2.33532,2.08479 3.13568,2.62052 0.80036,0.53573 1.57427,1.0639 1.71979,1.17371 0.3243,0.24471 2.21845,1.17227 3.88079,1.9004 2.16308,0.94748 2.89826,2.66337 1.93731,4.52164 -0.5803,1.12217 -1.14347,1.31762 -3.79667,1.31762 h -2.37898 l -1.27643,1.2638 c -1.1507,1.13931 -2.41367,3.32607 -3.81621,6.60755 -0.20214,0.47295 -0.45752,0.8599 -0.56752,0.8599 -0.11,0 -0.2,0.11591 -0.2,0.25759 0,0.32002 -1.56731,3.51989 -2.33612,4.76949 -0.31336,0.50933 -0.65156,1.10464 -0.75155,1.32292 -0.48655,1.06214 -5.852676,8.82267 -6.403226,9.26042 -0.0915,0.0728 -0.7617,0.84608 -1.48931,1.7185 -2.90824,3.48705 -7.1413,7.35764 -10.76725,9.8453 -2.40555,1.65037 -7.5592,4.49654 -8.49839,4.69335 -0.17244,0.0361 -0.67071,0.21302 -1.10727,0.39309 -2.05016,0.84558 -3.94872,1.33215 -7.80521,2.00034 -2.4342,0.42176 -9.35103,0.49569 -11.37708,0.1216 z m -24.87084,-68.82239 c -1.29868,-0.75111 -2.02297,-1.46946 -2.77442,-2.75172 -1.16401,-1.98623 -1.51477,-3.46185 -1.50296,-6.32293 0.009,-2.21144 0.13018,-2.98972 0.70705,-4.54605 0.76139,-2.05412 2.27556,-3.86398 3.76027,-4.49457 1.22829,-0.52167 3.35533,-0.45418 4.51696,0.14333 4.93427,2.53808 5.80008,12.5666 1.44946,16.78901 -0.5509,0.53466 -1.34162,1.1485 -1.75716,1.36408 -1.07778,0.55917 -3.27565,0.46866 -4.3992,-0.18115 z m 44.07404,0.22684 c -0.53468,-0.33156 -1.2097,-0.84346 -1.98561,-1.5058 -0.57421,-0.49015 -1.87176,-2.78936 -1.87176,-3.31668 0,-0.21312 -0.0977,-0.38749 -0.21701,-0.38749 -0.4243,0 -0.72366,-4.11799 -0.43591,-5.99636 0.48886,-3.19119 2.24139,-6.14159 4.20025,-7.07112 1.16438,-0.55254 3.39838,-0.54506 4.5793,0.0153 2.80331,1.33025 4.30879,4.45877 4.30879,8.95401 0,4.66535 -1.30985,7.43202 -4.30753,9.09839 -1.12308,0.6243 -3.42005,0.73711 -4.27052,0.20973 z"
         id="path882"
         inkscape:connector-curvature="0" />
    </g>
    <path
       inkscape:connector-curvature="0"
       id="path894-6"
       d="m -80.230798,225.6499 c -0.01777,-0.008 -0.126837,-0.0212 -0.242363,-0.0304 -0.570105,-0.0454 -0.71382,-0.0628 -0.729746,-0.0886 -0.0095,-0.0154 -0.06035,-0.028 -0.112948,-0.028 -0.0526,0 -0.200793,-0.0279 -0.329323,-0.062 -0.128529,-0.0341 -0.302943,-0.0721 -0.387585,-0.0845 -0.08464,-0.0124 -0.161844,-0.0354 -0.171561,-0.0511 -0.0097,-0.0157 -0.04609,-0.0286 -0.08083,-0.0286 -0.03474,0 -0.08841,-0.013 -0.119275,-0.0288 -0.03086,-0.0159 -0.186989,-0.0688 -0.346949,-0.11768 -0.255017,-0.0779 -0.465536,-0.1582 -0.631206,-0.24071 -0.02724,-0.0136 -0.09632,-0.035 -0.153496,-0.0475 -0.05718,-0.0126 -0.103963,-0.0362 -0.103963,-0.0526 0,-0.0164 -0.01818,-0.0303 -0.04039,-0.0309 -0.02222,-6.1e-4 -0.155708,-0.058 -0.296648,-0.12758 -0.14094,-0.0695 -0.271816,-0.11757 -0.290836,-0.10676 -0.01902,0.0108 -0.0239,0.008 -0.01084,-0.007 0.01306,-0.0144 -0.0088,-0.0436 -0.04847,-0.0648 -0.306847,-0.16387 -1.019497,-0.60839 -1.057831,-0.65983 -0.0089,-0.0119 -0.08521,-0.0647 -0.169596,-0.11724 -0.08439,-0.0525 -0.153466,-0.10399 -0.153497,-0.11431 -3.2e-5,-0.0103 -0.06913,-0.0676 -0.153555,-0.12725 -0.08442,-0.0597 -0.191526,-0.14575 -0.238006,-0.19129 -0.04648,-0.0455 -0.204689,-0.19186 -0.351574,-0.32516 -0.146886,-0.1333 -0.308035,-0.28599 -0.358109,-0.33931 -0.275119,-0.29295 -0.352679,-0.38077 -0.570769,-0.6463 -0.131382,-0.15996 -0.267006,-0.32197 -0.301387,-0.36002 -0.03438,-0.038 -0.06251,-0.0797 -0.06251,-0.0925 0,-0.0469 -0.284114,-0.39977 -0.305017,-0.37887 -0.01185,0.0118 -0.01196,-0.003 -2.32e-4,-0.034 0.01173,-0.0306 0.0079,-0.0556 -0.0085,-0.0556 -0.01638,0 -0.06166,-0.0597 -0.100619,-0.13272 -0.131019,-0.24546 -0.183397,-0.33576 -0.204179,-0.35201 -0.02501,-0.0195 -0.411605,-0.78547 -0.521951,-1.03408 -0.146931,-0.33103 -0.249289,-0.59761 -0.249195,-0.649 6.4e-5,-0.0281 -0.0099,-0.0611 -0.02205,-0.0733 -0.03266,-0.0327 -0.106065,-0.25416 -0.106627,-0.32176 -2.93e-4,-0.0359 -0.01489,-0.0496 -0.0378,-0.0354 -0.02194,0.0136 -0.02858,0.009 -0.01611,-0.0112 0.01166,-0.0189 -0.0077,-0.12653 -0.04306,-0.23928 -0.03534,-0.11274 -0.06444,-0.24411 -0.06467,-0.29194 -2.32e-4,-0.0478 -0.01496,-0.096 -0.03273,-0.10693 -0.01777,-0.011 -0.03232,-0.0671 -0.03232,-0.12471 0,-0.0576 -0.01305,-0.11854 -0.02901,-0.13543 -0.01595,-0.0169 -0.03625,-0.0889 -0.04511,-0.15996 -0.0089,-0.0711 -0.04307,-0.32557 -0.07602,-0.56551 -0.04724,-0.34398 -0.05968,-0.63449 -0.05881,-1.3734 0.0011,-0.95787 0.02767,-1.31207 0.142875,-1.90659 0.01722,-0.0889 0.04012,-0.21247 0.05089,-0.27468 0.01077,-0.0622 0.03204,-0.14218 0.04726,-0.17773 0.01522,-0.0356 0.03661,-0.10826 0.04752,-0.16158 0.01091,-0.0533 0.02595,-0.12602 0.03342,-0.16157 0.03855,-0.18343 0.132352,-0.48607 0.153578,-0.4955 0.01333,-0.006 0.02424,-0.043 0.02424,-0.0824 0,-0.0394 0.01161,-0.0855 0.0258,-0.10233 0.01419,-0.0169 0.05202,-0.11068 0.08406,-0.20844 0.03205,-0.0977 0.07707,-0.22136 0.100055,-0.27468 0.02298,-0.0533 0.07306,-0.16965 0.111274,-0.25852 0.03822,-0.0889 0.126196,-0.27265 0.195508,-0.40842 0.06931,-0.13577 0.117134,-0.25574 0.106272,-0.2666 -0.01086,-0.0109 -0.0028,-0.0198 0.01795,-0.0198 0.02074,0 0.0377,-0.0156 0.0377,-0.0346 0,-0.019 0.04363,-0.098 0.09695,-0.17548 0.05332,-0.0775 0.09695,-0.15028 0.09695,-0.16174 0,-0.0114 0.06544,-0.12199 0.145418,-0.24563 0.07998,-0.12363 0.145418,-0.23727 0.145418,-0.25253 0,-0.0153 0.05056,-0.0839 0.112353,-0.15249 0.06179,-0.0686 0.112691,-0.14292 0.113103,-0.16514 4.15e-4,-0.0222 0.01166,-0.0405 0.02499,-0.0406 0.01333,-1.2e-4 0.06059,-0.0541 0.105024,-0.11993 0.105705,-0.15663 0.393254,-0.5033 0.574582,-0.69271 0.09158,-0.0957 0.1349,-0.16511 0.119019,-0.1908 -0.01569,-0.0254 -0.01179,-0.0323 0.0105,-0.0185 0.01982,0.0122 0.132495,-0.0747 0.255435,-0.19705 0.378684,-0.37697 0.663166,-0.63222 0.930902,-0.83526 0.314605,-0.23859 1.030071,-0.72854 1.163345,-0.79666 0.585479,-0.29927 1.004713,-0.50674 1.149371,-0.5688 0.09655,-0.0414 0.200799,-0.0887 0.231662,-0.10502 0.03086,-0.0163 0.07812,-0.0297 0.105023,-0.0297 0.0269,0 0.04891,-0.0154 0.04891,-0.0342 0,-0.0188 0.01187,-0.0269 0.02637,-0.0179 0.02803,0.0173 0.2481,-0.05 0.285403,-0.0873 0.01218,-0.0122 0.049,-0.0221 0.08183,-0.0221 0.03283,0 0.08493,-0.0128 0.115796,-0.0283 0.0858,-0.0434 0.280419,-0.10091 0.341164,-0.10091 0.02984,0 0.05426,-0.013 0.05426,-0.0289 0,-0.0159 0.03272,-0.0295 0.07271,-0.0302 0.06949,-0.001 0.189043,-0.025 0.508964,-0.10121 0.312006,-0.0743 0.518002,-0.10608 1.163344,-0.17963 0.09775,-0.0111 0.468569,-0.0271 0.824036,-0.0355 0.525819,-0.0124 0.754736,-0.002 1.227974,0.0532 0.31992,0.0376 0.658017,0.076 0.751327,0.0853 0.09331,0.009 0.169654,0.0281 0.169654,0.0419 0,0.0138 0.05453,0.0342 0.121182,0.0453 0.358004,0.0599 0.702448,0.14083 0.791282,0.18595 0.03086,0.0157 0.07832,0.0285 0.105462,0.0285 0.02714,0 0.0746,0.0139 0.105463,0.0308 0.03086,0.0169 0.172447,0.0694 0.314634,0.11648 0.142186,0.0471 0.34849,0.12779 0.458454,0.17925 0.109963,0.0515 0.210111,0.0936 0.22255,0.0936 0.01244,0 0.147868,0.0613 0.300952,0.1363 0.153083,0.075 0.300146,0.13175 0.326806,0.12619 0.02666,-0.006 0.03786,6.7e-4 0.02489,0.0138 -0.01297,0.0132 0.03938,0.0558 0.116339,0.0948 0.07695,0.039 0.174416,0.095 0.216581,0.12453 0.04217,0.0295 0.101299,0.0537 0.131411,0.0537 0.03011,0 0.05959,0.0116 0.06552,0.0259 0.0059,0.0142 0.207087,0.16243 0.447026,0.32935 0.23994,0.16692 0.47246,0.33706 0.516712,0.37808 0.04425,0.041 0.09757,0.0746 0.118489,0.0746 0.02092,0 0.04288,0.0122 0.0488,0.0271 0.0059,0.0149 0.127107,0.12731 0.269292,0.24979 0.408522,0.35193 0.739601,0.68306 1.026821,1.02697 0.146182,0.17504 0.298485,0.35681 0.338454,0.40394 0.03997,0.0471 0.07269,0.0975 0.07271,0.11184 2.2e-5,0.0144 0.01458,0.0172 0.03236,0.006 0.01777,-0.011 0.03231,0.003 0.03231,0.0304 0,0.0277 0.01454,0.0504 0.03231,0.0504 0.01777,0 0.03231,0.0155 0.03231,0.0345 0,0.0288 0.138288,0.2346 0.194016,0.28868 0.0092,0.009 0.0456,0.0717 0.08097,0.13952 0.03538,0.0678 0.08977,0.15085 0.120872,0.18446 0.0311,0.0336 0.05655,0.0762 0.05655,0.0948 0,0.0185 0.01454,0.0337 0.03232,0.0337 0.01777,0 0.03231,0.0218 0.03231,0.0485 0,0.0267 0.01297,0.0485 0.02881,0.0485 0.01585,0 0.03863,0.0391 0.05062,0.0869 0.01199,0.0478 0.04773,0.12414 0.07941,0.16965 0.03168,0.0455 0.113984,0.19183 0.182899,0.32513 0.06891,0.13329 0.136549,0.24721 0.150299,0.25313 0.01375,0.006 0.025,0.0378 0.025,0.0708 0,0.033 0.01454,0.069 0.03232,0.08 0.01777,0.011 0.0324,0.0446 0.03251,0.0746 9.7e-5,0.0301 0.02192,0.0963 0.04847,0.14721 0.02655,0.0509 0.04827,0.11271 0.04827,0.13733 0,0.0246 0.01285,0.0448 0.02855,0.0448 0.0157,0 0.03576,0.0327 0.04457,0.0727 0.0088,0.04 0.06916,0.21813 0.134115,0.39586 0.119093,0.32589 0.272328,0.85496 0.299506,1.03409 0.0081,0.0533 0.02736,0.12603 0.04282,0.16157 0.01546,0.0356 0.03532,0.11553 0.04413,0.17774 0.0088,0.0622 0.03849,0.24397 0.06594,0.40393 0.06844,0.39871 0.130548,1.15494 0.130052,1.58344 -7.33e-4,0.61 -0.101358,1.61482 -0.210404,2.10049 -0.128461,0.57214 -0.239818,0.97065 -0.370217,1.32492 -0.06542,0.17773 -0.127169,0.35223 -0.137217,0.38778 -0.01005,0.0356 -0.04487,0.11233 -0.07737,0.17064 -0.03251,0.0583 -0.0591,0.12054 -0.0591,0.13832 0,0.0401 -0.346385,0.7376 -0.464423,0.93517 -0.04779,0.08 -0.102407,0.18541 -0.121384,0.23428 -0.01898,0.0489 -0.04762,0.0889 -0.06366,0.0889 -0.01603,0 -0.02915,0.0148 -0.02915,0.0328 0,0.0389 -0.231533,0.39863 -0.266599,0.41422 -0.01333,0.006 -0.02424,0.0302 -0.02424,0.0539 0,0.0237 -0.01091,0.0479 -0.02423,0.0539 -0.01333,0.006 -0.118201,0.13438 -0.233046,0.28545 -0.330056,0.43418 -0.505206,0.63312 -0.954535,1.0842 -0.37098,0.37242 -1.204538,1.08092 -1.271719,1.08092 -0.01367,0 -0.05441,0.0275 -0.09052,0.0612 -0.06758,0.063 -0.615052,0.42355 -0.643064,0.42355 -0.0086,0 -0.07719,0.0389 -0.152372,0.0864 -0.1593,0.10065 -0.747327,0.40246 -0.90255,0.46323 -0.153377,0.06 -0.313786,0.12721 -0.462122,0.19348 -0.07109,0.0318 -0.303761,0.11195 -0.517041,0.17821 -0.21328,0.0662 -0.416865,0.13277 -0.452412,0.14781 -0.03555,0.0151 -0.137338,0.0417 -0.226206,0.0593 -0.08887,0.0176 -0.227014,0.0474 -0.306993,0.0664 -0.07998,0.019 -0.203586,0.0427 -0.274679,0.0526 -0.07109,0.01 -0.151073,0.0262 -0.177733,0.036 -0.02666,0.01 -0.09937,0.023 -0.161575,0.0293 -0.149547,0.0152 -0.391759,0.0517 -0.452412,0.0683 -0.06737,0.0184 -1.850652,0.0432 -1.890435,0.0263 z"
       style="fill:#ffd42a;fill-opacity:1;stroke-width:0.03231512;opacity:0.368" />
    <path
       inkscape:connector-curvature="0"
       id="path882-7"
       d="m -80.424689,225.56552 c -0.213279,-0.0165 -0.448751,-0.0446 -0.523272,-0.0624 -0.07452,-0.0179 -0.186361,-0.0325 -0.248535,-0.0325 -0.06217,0 -0.122031,-0.0145 -0.133015,-0.0323 -0.01098,-0.0178 -0.06534,-0.0323 -0.120795,-0.0323 -0.05545,0 -0.14548,-0.0137 -0.200063,-0.0305 -0.05458,-0.0168 -0.201031,-0.0546 -0.325445,-0.0842 -0.235832,-0.056 -0.40718,-0.10383 -0.517042,-0.14441 -0.03555,-0.0131 -0.188236,-0.0642 -0.339308,-0.11349 -0.151073,-0.0493 -0.331942,-0.11651 -0.401931,-0.14938 -0.06999,-0.0329 -0.138663,-0.0598 -0.152612,-0.0598 -0.04134,0 -0.863427,-0.38388 -0.899638,-0.42009 -0.01651,-0.0165 -0.06085,-0.0423 -0.320604,-0.18659 -0.238254,-0.13233 -0.841364,-0.53566 -1.068946,-0.71487 -0.115526,-0.091 -0.234767,-0.18411 -0.264978,-0.20699 -0.250027,-0.18934 -1.000267,-0.92021 -1.20603,-1.17489 -0.06952,-0.0861 -0.134163,-0.16373 -0.143652,-0.17261 -0.06054,-0.0567 -0.320672,-0.38381 -0.351341,-0.44181 -0.02041,-0.0386 -0.05601,-0.0895 -0.0791,-0.11311 -0.03962,-0.0405 -0.295924,-0.4244 -0.488507,-0.73171 -0.26393,-0.42117 -0.632857,-1.1791 -0.781522,-1.60558 -0.03098,-0.0889 -0.06846,-0.17538 -0.0833,-0.19227 -0.01484,-0.0169 -0.02697,-0.0612 -0.02697,-0.0986 0,-0.0373 -0.01157,-0.0817 -0.02572,-0.0986 -0.03527,-0.0421 -0.08738,-0.21137 -0.153717,-0.49927 -0.03071,-0.1333 -0.06725,-0.27145 -0.08119,-0.30699 -0.01394,-0.0356 -0.03449,-0.10826 -0.04567,-0.16158 -0.01118,-0.0533 -0.0347,-0.16238 -0.05226,-0.24236 -0.07646,-0.34821 -0.139141,-0.859 -0.192009,-1.56464 -0.04812,-0.64222 0.03164,-1.67722 0.195694,-2.53938 0.0723,-0.37996 0.263399,-1.06495 0.378648,-1.35724 0.01051,-0.0267 0.02049,-0.0557 0.02218,-0.0646 0.0087,-0.0456 0.128395,-0.35569 0.180904,-0.46857 0.0946,-0.20336 0.225545,-0.50169 0.225545,-0.51385 0,-0.006 0.07998,-0.15229 0.177733,-0.3249 0.09775,-0.17261 0.177734,-0.32132 0.177734,-0.33046 0,-0.0148 0.431366,-0.68928 0.492283,-0.76969 0.353315,-0.46637 0.496626,-0.65309 0.524164,-0.68295 0.01859,-0.0202 0.128316,-0.14233 0.243842,-0.27151 0.20282,-0.22679 0.609104,-0.63232 0.775563,-0.77413 0.08782,-0.0748 0.123576,-0.10462 0.388886,-0.32418 0.703426,-0.58213 1.585694,-1.10402 2.55179,-1.50949 0.20917,-0.0878 0.24181,-0.1003 0.403939,-0.15489 0.08887,-0.0299 0.190659,-0.0659 0.226206,-0.0801 0.105185,-0.0418 0.437985,-0.13699 0.646302,-0.18493 0.10664,-0.0245 0.252058,-0.0593 0.323151,-0.0772 0.215953,-0.0544 0.430833,-0.0918 0.920982,-0.16019 0.412813,-0.0576 0.589692,-0.0637 1.486495,-0.0511 0.559859,0.008 1.068822,0.0228 1.131029,0.0332 0.06221,0.0104 0.200353,0.0331 0.306994,0.0504 0.106639,0.0173 0.262963,0.0467 0.347387,0.0653 0.08442,0.0186 0.215299,0.0471 0.290836,0.0634 0.462264,0.0995 1.105874,0.28858 1.340725,0.39379 0.07534,0.0337 0.158958,0.0614 0.185812,0.0614 0.02685,0 0.04882,0.0145 0.04882,0.0323 0,0.0178 0.02823,0.0323 0.06272,0.0323 0.0345,0 0.07171,0.0145 0.0827,0.0323 0.01098,0.0178 0.04056,0.0323 0.06573,0.0323 0.05151,0 0.609055,0.26956 1.000667,0.4838 0.36743,0.20102 1.214834,0.78796 1.425198,0.98715 0.01961,0.0186 0.12867,0.10959 0.242363,0.20227 0.311637,0.25405 1.118942,1.0917 1.252683,1.29977 0.02856,0.0444 0.09203,0.12442 0.141055,0.17773 0.04902,0.0533 0.08919,0.10682 0.08928,0.11888 9.8e-5,0.012 0.01891,0.0411 0.04185,0.0646 0.04777,0.0489 0.320138,0.44983 0.468088,0.689 0.300743,0.48617 0.710257,1.33036 0.862182,1.77733 0.0302,0.0889 0.06683,0.19066 0.0814,0.22621 0.05169,0.12616 0.224542,0.71433 0.275408,0.93714 0.0284,0.12441 0.0597,0.25529 0.06955,0.29083 0.03086,0.11143 0.07501,0.40238 0.139736,0.92098 0.06984,0.55958 0.08756,1.64563 0.03401,2.08433 -0.125462,1.02778 -0.146431,1.14405 -0.335103,1.85812 -0.05175,0.19587 -0.218214,0.70417 -0.280443,0.85635 -0.0218,0.0533 -0.05097,0.12603 -0.06481,0.16158 -0.01384,0.0355 -0.07747,0.17715 -0.141394,0.31468 -0.06392,0.13752 -0.116225,0.27204 -0.116225,0.29891 0,0.0269 -0.01091,0.0493 -0.02424,0.0497 -0.01333,4.9e-4 -0.06,0.0794 -0.103697,0.17547 -0.0437,0.096 -0.09321,0.16609 -0.110017,0.15571 -0.01681,-0.0104 -0.02014,-0.002 -0.0074,0.0186 0.02346,0.038 -0.102814,0.2957 -0.144863,0.2957 -0.01257,0 -0.03115,0.033 -0.04128,0.0734 -0.0154,0.0614 -0.16272,0.30859 -0.254751,0.42752 -0.01375,0.0178 -0.09324,0.13411 -0.176628,0.25852 -0.175754,0.26221 -0.369589,0.50981 -0.721008,0.92098 -0.180848,0.21161 -0.565246,0.58911 -1.017477,0.99922 -0.148942,0.13507 -0.540941,0.4399 -0.619545,0.48178 -0.0386,0.0206 -0.08997,0.0572 -0.114141,0.0813 -0.06168,0.0617 -0.555932,0.37763 -0.768966,0.49157 -0.09775,0.0523 -0.182581,0.10596 -0.188504,0.11929 -0.0059,0.0133 -0.03137,0.0242 -0.05655,0.0242 -0.02518,0 -0.04578,0.0145 -0.04578,0.0323 0,0.0178 -0.01673,0.0323 -0.03717,0.0323 -0.05096,0 -0.396505,0.16928 -0.409853,0.20078 -0.0059,0.014 -0.02865,0.0254 -0.0505,0.0254 -0.02185,0 -0.115091,0.0363 -0.207197,0.0808 -0.09211,0.0444 -0.182276,0.0808 -0.200378,0.0808 -0.0181,0 -0.05816,0.0133 -0.08902,0.0296 -0.101248,0.0534 -0.278592,0.12188 -0.508525,0.19634 -0.124412,0.0403 -0.255288,0.0846 -0.290836,0.0985 -0.03555,0.0139 -0.217318,0.0639 -0.403938,0.11117 -0.18662,0.0472 -0.383966,0.0994 -0.438549,0.11595 -0.05458,0.0165 -0.14461,0.0301 -0.200062,0.0301 -0.05545,0 -0.108684,0.0127 -0.118291,0.0283 -0.0096,0.0155 -0.09408,0.0368 -0.187719,0.0472 -0.09364,0.0104 -0.286585,0.0339 -0.428772,0.0521 -0.369168,0.0474 -1.739709,0.0674 -2.197428,0.032 z m 2.29166,-0.55159 c 0.214773,-0.0348 0.455934,-0.071 0.535914,-0.0803 0.07998,-0.009 0.174502,-0.0288 0.210048,-0.0431 0.03555,-0.0143 0.14461,-0.0435 0.242363,-0.0649 0.235726,-0.0516 0.677284,-0.17824 0.79172,-0.22709 0.03555,-0.0152 0.173695,-0.0674 0.306995,-0.11598 0.413193,-0.1507 1.065385,-0.46078 1.452051,-0.69037 0.234328,-0.13913 0.692826,-0.43111 0.713061,-0.45409 0.0089,-0.0101 0.09301,-0.0728 0.186945,-0.13934 0.09393,-0.0665 0.21271,-0.15836 0.263947,-0.20401 0.05124,-0.0456 0.103255,-0.0853 0.115593,-0.0881 0.02233,-0.005 0.109886,-0.0852 0.503445,-0.46063 0.393029,-0.37493 0.941119,-0.98189 1.076874,-1.19254 0.03436,-0.0533 0.07799,-0.1135 0.09694,-0.13373 0.07214,-0.077 0.147571,-0.17467 0.147571,-0.1911 0,-0.009 0.02715,-0.0565 0.06034,-0.10465 0.03319,-0.0482 0.131346,-0.2042 0.218126,-0.34675 0.08678,-0.14256 0.175501,-0.28798 0.197156,-0.32315 0.124979,-0.20303 0.495027,-0.99286 0.591898,-1.26335 0.03746,-0.10459 0.08056,-0.21924 0.09578,-0.25479 0.03743,-0.0874 0.184331,-0.56195 0.205076,-0.66246 0.0092,-0.0444 0.03319,-0.13896 0.05339,-0.21005 0.220279,-0.77559 0.351439,-2.3127 0.263331,-3.08609 -0.106545,-0.93524 -0.116863,-1.00512 -0.200396,-1.35724 -0.01897,-0.08 -0.04186,-0.18904 -0.05087,-0.24236 -0.009,-0.0533 -0.03237,-0.12964 -0.05192,-0.16961 -0.01955,-0.04 -0.02756,-0.0806 -0.0178,-0.0904 0.0098,-0.01 -0.02409,-0.12975 -0.07524,-0.26665 -0.05114,-0.13689 -0.09304,-0.27434 -0.0931,-0.30545 -6.5e-5,-0.0311 -0.01164,-0.0566 -0.02573,-0.0566 -0.01409,0 -0.04392,-0.0685 -0.0663,-0.15214 -0.04005,-0.14973 -0.06217,-0.20525 -0.222713,-0.55879 -0.101435,-0.22338 -0.334335,-0.68993 -0.421243,-0.84384 -0.135246,-0.23952 -0.153652,-0.26947 -0.19016,-0.30946 -0.02055,-0.0225 -0.05682,-0.0849 -0.0806,-0.13859 -0.02378,-0.0537 -0.05422,-0.0977 -0.06766,-0.0977 -0.01344,0 -0.02443,-0.0206 -0.02443,-0.0458 0,-0.0252 -0.01168,-0.0506 -0.02595,-0.0566 -0.01427,-0.006 -0.118215,-0.14165 -0.230985,-0.30161 -0.112768,-0.15996 -0.21379,-0.29811 -0.224493,-0.30699 -0.0107,-0.009 -0.09111,-0.10341 -0.178691,-0.21005 -0.201542,-0.24541 -0.217712,-0.26275 -0.576755,-0.61857 -0.45463,-0.45056 -0.548872,-0.53481 -0.865932,-0.77418 -0.11425,-0.0862 -0.212574,-0.16808 -0.218499,-0.18184 -0.0059,-0.0137 -0.02816,-0.025 -0.04942,-0.025 -0.02125,0 -0.05961,-0.0291 -0.08523,-0.0646 -0.02562,-0.0356 -0.05888,-0.0646 -0.07392,-0.0646 -0.01503,0 -0.075,-0.0363 -0.133255,-0.0808 -0.05826,-0.0444 -0.113991,-0.0808 -0.123857,-0.0808 -0.01581,0 -0.310063,-0.18607 -0.396094,-0.25047 -0.01779,-0.0133 -0.0905,-0.0542 -0.161576,-0.091 -0.07107,-0.0367 -0.231016,-0.11923 -0.35543,-0.18339 -0.2678,-0.1381 -0.475679,-0.23062 -0.953295,-0.42429 -0.115527,-0.0469 -0.228423,-0.0851 -0.250882,-0.0851 -0.02246,5e-5 -0.06608,-0.014 -0.09695,-0.0312 -0.07994,-0.0446 -0.346694,-0.13064 -0.573155,-0.1849 -0.517431,-0.12395 -0.708113,-0.15984 -1.260289,-0.23718 -0.424928,-0.0595 -0.59436,-0.0661 -1.373392,-0.0535 -0.887846,0.0144 -1.224101,0.0424 -1.680386,0.14014 -0.1333,0.0285 -0.300531,0.0633 -0.371624,0.0773 -0.307447,0.0604 -0.905083,0.23491 -1.098715,0.32077 -0.03555,0.0158 -0.14461,0.0574 -0.242363,0.0925 -0.329897,0.11853 -1.04908,0.46033 -1.249955,0.59406 -0.07429,0.0495 -0.143256,0.0899 -0.153247,0.0899 -0.02041,0 -0.639776,0.39118 -0.664966,0.41998 -0.0089,0.0102 -0.176117,0.14089 -0.371623,0.29052 -0.195507,0.14963 -0.418892,0.33091 -0.496411,0.40284 -0.424941,0.39433 -0.90034,0.90193 -1.130728,1.20733 -0.06283,0.0833 -0.123638,0.15871 -0.135124,0.16759 -0.03875,0.03 -0.570945,0.82265 -0.661738,0.98562 -0.210621,0.37804 -0.462954,0.89373 -0.577139,1.1795 -0.06747,0.16884 -0.13511,0.33607 -0.150317,0.37162 -0.01521,0.0356 -0.0669,0.19551 -0.114874,0.35547 -0.04797,0.15996 -0.0981,0.31992 -0.111386,0.35546 -0.03183,0.0851 -0.08155,0.28108 -0.127111,0.50089 -0.02026,0.0977 -0.05084,0.2359 -0.06794,0.30699 -0.04831,0.20077 -0.09563,0.62595 -0.138936,1.24844 -0.05294,0.76105 0.0023,1.61401 0.156695,2.41933 0.02896,0.15107 0.0606,0.3293 0.07031,0.39606 0.0097,0.0668 0.03066,0.12942 0.04655,0.13924 0.0159,0.01 0.0289,0.0527 0.0289,0.0952 0,0.0426 0.01356,0.11076 0.03013,0.15159 0.01657,0.0408 0.05413,0.16148 0.08347,0.26812 0.02934,0.10664 0.06668,0.21914 0.08297,0.25 0.0163,0.0309 0.02963,0.0854 0.02963,0.12118 0,0.0358 0.01454,0.0651 0.03232,0.0651 0.01777,0 0.03231,0.0282 0.03231,0.0627 0,0.0345 0.01454,0.0717 0.03231,0.0827 0.01777,0.011 0.03232,0.0424 0.03232,0.0697 0,0.0517 0.0309,0.12668 0.214103,0.51963 0.05998,0.12864 0.109048,0.24861 0.109048,0.2666 0,0.018 0.01099,0.0327 0.02443,0.0327 0.01343,0 0.04469,0.0473 0.06946,0.10502 0.02477,0.0578 0.09598,0.19227 0.158254,0.29891 0.06227,0.10664 0.129746,0.22298 0.149938,0.25852 0.04921,0.0866 0.410357,0.63368 0.458678,0.69478 0.506878,0.64097 0.579838,0.72442 1.015068,1.16096 0.233441,0.23415 0.497101,0.4716 0.70911,0.63862 0.05776,0.0455 0.31542,0.25283 0.396508,0.31905 0.03131,0.0256 0.06333,0.0465 0.07116,0.0465 0.0078,0 0.105823,0.0638 0.217758,0.14178 0.513356,0.35762 1.140355,0.68934 1.89908,1.00474 0.150533,0.0626 0.292513,0.11377 0.31551,0.11377 0.023,0 0.06706,0.0128 0.09793,0.0285 0.103218,0.0525 0.216957,0.0957 0.298475,0.11331 0.104998,0.0227 0.433211,0.10404 0.59783,0.14814 0.335181,0.0898 1.026096,0.19774 1.45418,0.22717 0.584037,0.0402 1.638062,0.005 2.097769,-0.069 z m -1.596884,-4.78001 c -0.07998,-0.0148 -0.283565,-0.0507 -0.452412,-0.0799 -0.168846,-0.0292 -0.336077,-0.0654 -0.371624,-0.0806 -0.03555,-0.0151 -0.115526,-0.0428 -0.177733,-0.0615 -0.220358,-0.0663 -0.599378,-0.1996 -0.710932,-0.25005 -0.22305,-0.10088 -0.662774,-0.3176 -0.678618,-0.33446 -0.0089,-0.009 -0.05251,-0.035 -0.09694,-0.0567 -0.177329,-0.0868 -0.60329,-0.35206 -0.673059,-0.41917 -0.0236,-0.0227 -0.0745,-0.0581 -0.113103,-0.0787 -0.0386,-0.0205 -0.208335,-0.14706 -0.377182,-0.28114 -0.168847,-0.13409 -0.326215,-0.25896 -0.349708,-0.2775 -0.09098,-0.0718 -0.513901,-0.46377 -0.716299,-0.66386 -0.412156,-0.40746 -0.733991,-0.77068 -1.002161,-1.13103 -0.234308,-0.31485 -0.326599,-0.41437 -0.429604,-0.46325 -0.120213,-0.057 -0.298712,-0.0718 -0.326419,-0.0269 -0.02291,0.0371 -0.335463,0.10186 -0.466376,0.0967 -0.132123,-0.005 -0.296412,-0.15656 -0.296412,-0.27304 0,-0.13908 0.165579,-0.39985 0.253889,-0.39985 0.04057,0 0.371535,-0.17504 0.499988,-0.26444 0.222551,-0.15488 0.447399,-0.3655 0.626084,-0.58647 0.103027,-0.1274 0.205221,-0.25058 0.227096,-0.27373 0.06304,-0.0667 0.285077,-0.0618 0.362199,0.008 0.0979,0.0886 0.09126,0.35131 -0.01419,0.56125 -0.06717,0.13375 -0.08079,0.20702 -0.08079,0.43485 0,0.45717 0.141527,0.75511 0.586852,1.23542 0.03296,0.0356 0.143431,0.15785 0.245498,0.27179 0.348133,0.38861 0.855551,0.87508 1.163109,1.1151 0.111083,0.0867 0.20197,0.17001 0.20197,0.18516 0,0.0152 0.01928,0.0276 0.04284,0.0276 0.02356,0 0.07699,0.0364 0.118737,0.0808 0.04174,0.0444 0.08851,0.0808 0.103929,0.0808 0.01542,0 0.0599,0.0297 0.09885,0.066 0.03895,0.0363 0.1365,0.1041 0.216776,0.15069 0.08028,0.0466 0.153226,0.0933 0.162114,0.10368 0.07147,0.0838 0.843702,0.47697 1.276447,0.64981 0.113202,0.0452 0.506441,0.15615 0.79172,0.22335 0.409851,0.0966 1.230296,0.13038 1.556739,0.0642 0.477063,-0.0967 0.776615,-0.18491 1.060785,-0.3123 0.09775,-0.0438 0.214087,-0.0958 0.258522,-0.11543 0.145741,-0.0645 0.690125,-0.4201 0.92098,-0.60157 0.317968,-0.24995 0.861279,-0.80879 1.114872,-1.14674 0.06221,-0.0829 0.13049,-0.17011 0.151743,-0.1938 0.05558,-0.062 0.499293,-0.74892 0.60708,-0.93987 0.120378,-0.21326 0.187801,-0.34739 0.292409,-0.58168 0.134764,-0.30183 0.138834,-0.31238 0.193101,-0.50088 0.02814,-0.0977 0.06621,-0.22557 0.08459,-0.28403 0.01838,-0.0585 0.03342,-0.21948 0.03342,-0.35783 0,-0.21354 -0.01326,-0.27529 -0.08781,-0.40882 -0.0483,-0.0865 -0.113268,-0.18461 -0.144378,-0.218 -0.102645,-0.11018 -0.112425,-0.35511 -0.0189,-0.47326 0.01976,-0.025 0.08396,-0.0655 0.142664,-0.09 0.176016,-0.0736 0.298731,-0.0278 0.528221,0.19704 0.112885,0.1106 0.285226,0.25463 0.382979,0.32006 0.09775,0.0654 0.192274,0.12994 0.210048,0.14335 0.03961,0.0299 0.270952,0.14318 0.473983,0.23211 0.26419,0.11572 0.353982,0.32529 0.236615,0.55226 -0.07088,0.13705 -0.139658,0.16092 -0.463709,0.16092 h -0.290559 l -0.155898,0.15436 c -0.140542,0.13915 -0.294796,0.40623 -0.466096,0.80702 -0.02469,0.0578 -0.05588,0.10502 -0.06932,0.10502 -0.01344,0 -0.02443,0.0142 -0.02443,0.0315 0,0.0391 -0.191425,0.42991 -0.285324,0.58253 -0.03827,0.0622 -0.07958,0.13492 -0.09179,0.16158 -0.05942,0.12972 -0.714822,1.07756 -0.782064,1.13103 -0.01118,0.009 -0.09303,0.10333 -0.181898,0.20989 -0.355201,0.42589 -0.872209,0.89863 -1.315068,1.20246 -0.293804,0.20157 -0.923249,0.54919 -1.037958,0.57323 -0.02106,0.004 -0.08192,0.026 -0.135238,0.048 -0.250398,0.10327 -0.48228,0.1627 -0.953296,0.24431 -0.297303,0.0515 -1.142096,0.0605 -1.38955,0.0149 z m -3.037621,-8.40568 c -0.158616,-0.0917 -0.247078,-0.17948 -0.338857,-0.33609 -0.142167,-0.24259 -0.185007,-0.42281 -0.183565,-0.77225 0.0011,-0.2701 0.0159,-0.36515 0.08636,-0.55524 0.09299,-0.25088 0.277928,-0.47193 0.459264,-0.54895 0.150018,-0.0637 0.409806,-0.0555 0.551683,0.0175 0.602651,0.30999 0.708398,1.53483 0.177031,2.05054 -0.06729,0.0653 -0.16386,0.14027 -0.214612,0.1666 -0.131636,0.0683 -0.400075,0.0572 -0.5373,-0.0221 z m 5.383021,0.0277 c -0.0653,-0.0405 -0.147748,-0.10301 -0.242514,-0.18391 -0.07013,-0.0599 -0.228609,-0.34068 -0.228609,-0.40508 0,-0.026 -0.01193,-0.0473 -0.02651,-0.0473 -0.05182,0 -0.08839,-0.50296 -0.05324,-0.73237 0.05971,-0.38976 0.273754,-0.75011 0.513001,-0.86364 0.142213,-0.0675 0.415064,-0.0666 0.559297,0.002 0.342385,0.16247 0.526258,0.54458 0.526258,1.09361 0,0.5698 -0.15998,0.90771 -0.526104,1.11123 -0.137168,0.0762 -0.417711,0.09 -0.521584,0.0256 z"
       style="fill:#333333;fill-opacity:1;stroke-width:0.03231512;opacity:0.495" />
  </g>
</svg>
