<?xml version="1.0" encoding="UTF-8" standalone="no"?>
<!-- Created with Inkscape (http://www.inkscape.org/) -->

<svg
   xmlns:dc="http://purl.org/dc/elements/1.1/"
   xmlns:cc="http://creativecommons.org/ns#"
   xmlns:rdf="http://www.w3.org/1999/02/22-rdf-syntax-ns#"
   xmlns:svg="http://www.w3.org/2000/svg"
   xmlns="http://www.w3.org/2000/svg"
   xmlns:sodipodi="http://sodipodi.sourceforge.net/DTD/sodipodi-0.dtd"
   xmlns:inkscape="http://www.inkscape.org/namespaces/inkscape"
   width="192"
   height="192"
   viewBox="0 0 50.799997 50.799997"
   version="1.1"
   id="svg8"
   inkscape:version="0.92.4 (5da689c313, 2019-01-14)"
   sodipodi:docname="logo.svg">
  <defs
     id="defs2" />
  <sodipodi:namedview
     id="base"
     pagecolor="#ffffff"
     bordercolor="#666666"
     borderopacity="1.0"
     inkscape:pageopacity="0.0"
     inkscape:pageshadow="2"
     inkscape:zoom="1"
     inkscape:cx="257.91274"
     inkscape:cy="213.88867"
     inkscape:document-units="mm"
     inkscape:current-layer="layer1"
     showgrid="false"
     inkscape:window-width="1280"
     inkscape:window-height="968"
     inkscape:window-x="2560"
     inkscape:window-y="24"
     inkscape:window-maximized="1"
     fit-margin-top="0"
     fit-margin-left="0"
     fit-margin-right="0"
     fit-margin-bottom="0"
     units="px" />
  <metadata
     id="metadata5">
    <rdf:RDF>
      <cc:Work
         rdf:about="">
        <dc:format>image/svg+xml</dc:format>
        <dc:type
           rdf:resource="http://purl.org/dc/dcmitype/StillImage" />
        <dc:title></dc:title>
      </cc:Work>
    </rdf:RDF>
  </metadata>
  <g
     inkscape:label="Layer 1"
     inkscape:groupmode="layer"
     id="layer1"
     transform="translate(93.137652,-179.88253)">
    <g
       id="g1641"
       transform="matrix(0.37647058,0,0,0.3764706,-58.074066,143.83734)">
      <path
         style="fill:#ffd42a;fill-opacity:1;stroke-width:0.21276818"
         d="m -30.774211,230.64546 c -0.117055,-0.0526 -0.835505,-0.13952 -1.596503,-0.20006 -3.755417,-0.29878 -4.702102,-0.41329 -4.807011,-0.58309 -0.06258,-0.10135 -0.39754,-0.18427 -0.744015,-0.18427 -0.346489,0 -1.322672,-0.18361 -2.16933,-0.40803 -0.846651,-0.22441 -1.995557,-0.47449 -2.553115,-0.5561 -0.557543,-0.0816 -1.066105,-0.23297 -1.130113,-0.33629 -0.0639,-0.10333 -0.303606,-0.18822 -0.532446,-0.18822 -0.228841,0 -0.582378,-0.0856 -0.785693,-0.18954 -0.203282,-0.10464 -1.231741,-0.45278 -2.285436,-0.77446 -1.679858,-0.51267 -3.066597,-1.04113 -4.157905,-1.58414 -0.179436,-0.0895 -0.634483,-0.23034 -1.011115,-0.3126 -0.376658,-0.0829 -0.684829,-0.23824 -0.684829,-0.34617 0,-0.10793 -0.119756,-0.1994 -0.266058,-0.20335 -0.146369,-0.004 -1.025686,-0.38171 -1.954092,-0.83962 -0.928405,-0.45738 -1.790517,-0.77374 -1.915806,-0.7026 -0.125289,0.0711 -0.157435,0.0526 -0.07141,-0.0461 0.08603,-0.0948 -0.05797,-0.28694 -0.319283,-0.42646 -2.021275,-1.07844 -6.71567,-4.00387 -6.968186,-4.34241 -0.05863,-0.0783 -0.561298,-0.42579 -1.117169,-0.77156 -0.555897,-0.34551 -1.010917,-0.68437 -1.011121,-0.75229 -2.11e-4,-0.0678 -0.455376,-0.44488 -1.011504,-0.83744 -0.556094,-0.3929 -1.261627,-0.9592 -1.567802,-1.2589 -0.306175,-0.29944 -1.348336,-1.26265 -2.315902,-2.13991 -0.967573,-0.87726 -2.0291,-1.88213 -2.35895,-2.23304 -1.812274,-1.92793 -2.32318,-2.50588 -3.759791,-4.25336 -0.865445,-1.05271 -1.758833,-2.11892 -1.985309,-2.36933 -0.226469,-0.25008 -0.411768,-0.52451 -0.411768,-0.60875 0,-0.30865 -1.871527,-2.63092 -2.00922,-2.49338 -0.07806,0.0777 -0.07878,-0.0197 -0.0015,-0.22376 0.07727,-0.20138 0.05204,-0.36591 -0.05599,-0.36591 -0.107899,0 -0.40617,-0.39289 -0.662802,-0.87344 -0.863053,-1.6154 -1.20808,-2.20967 -1.344976,-2.31661 -0.164747,-0.12833 -2.71134,-5.16926 -3.438216,-6.80538 -0.967869,-2.17854 -1.642126,-3.93293 -1.641507,-4.27114 4.22e-4,-0.18493 -0.06521,-0.4021 -0.145248,-0.48239 -0.215139,-0.2152 -0.698676,-1.67265 -0.702378,-2.11754 -0.0019,-0.23626 -0.09808,-0.32642 -0.248997,-0.23297 -0.144524,0.0895 -0.188264,0.0592 -0.106121,-0.0737 0.07681,-0.12439 -0.05072,-0.83271 -0.283646,-1.57473 -0.232793,-0.74195 -0.424482,-1.60651 -0.425997,-1.92129 -0.0015,-0.31457 -0.09855,-0.63178 -0.2156,-0.70371 -0.117056,-0.0724 -0.2129,-0.44159 -0.2129,-0.82073 0,-0.37907 -0.08596,-0.78013 -0.191096,-0.89128 -0.105066,-0.11122 -0.238787,-0.58506 -0.29715,-1.05271 -0.05863,-0.46792 -0.283713,-2.14261 -0.500762,-3.72168 -0.311181,-2.26377 -0.393126,-4.17564 -0.387396,-9.03848 0.0072,-6.30384 0.182269,-8.63486 0.941152,-12.54746 0.113432,-0.58506 0.26428,-1.39828 0.335225,-1.80769 0.07094,-0.40935 0.211055,-0.9357 0.311313,-1.16966 0.100257,-0.23429 0.241159,-0.71247 0.313025,-1.06338 0.07187,-0.35077 0.170939,-0.82935 0.220146,-1.0633 0.253938,-1.20718 0.871834,-3.19888 1.011655,-3.26094 0.08781,-0.0395 0.159674,-0.28299 0.159674,-0.54228 0,-0.2593 0.07648,-0.56269 0.169951,-0.67345 0.09347,-0.11122 0.342668,-0.72839 0.553724,-1.37176 0.211121,-0.64297 0.507678,-1.45679 0.659086,-1.8077 0.151374,-0.35077 0.481263,-1.11648 0.732988,-1.70134 0.251764,-0.58506 0.831283,-1.79434 1.287858,-2.68785 0.456562,-0.89352 0.77159,-1.68305 0.700039,-1.75452 -0.07154,-0.0717 -0.01844,-0.13031 0.118241,-0.13031 0.136619,0 0.248339,-0.10267 0.248339,-0.22771 0,-0.12504 0.287401,-0.64494 0.638633,-1.15485 0.351231,-0.51003 0.638633,-0.98901 0.638633,-1.06442 0,-0.075 0.431068,-0.80283 0.957903,-1.61652 0.526847,-0.81362 0.957903,-1.5615 0.957903,-1.66192 0,-0.1007 0.333051,-0.55216 0.740096,-1.00356 0.407025,-0.45146 0.742322,-0.94057 0.745036,-1.0868 0.0027,-0.1461 0.07681,-0.26653 0.164615,-0.26719 0.08781,-7.9e-4 0.399121,-0.35604 0.691819,-0.78927 0.696304,-1.0308 2.590458,-3.31227 3.784908,-4.5588 0.60326,-0.62981 0.888619,-1.0866 0.784007,-1.25567 -0.103354,-0.16716 -0.07766,-0.21257 0.06917,-0.12175 0.130559,0.0803 0.872776,-0.49161 1.682611,-1.29681 2.494482,-2.48087 4.368433,-4.1607 6.132074,-5.49692 2.072379,-1.57019 6.785324,-4.7946 7.663232,-5.2429 3.85669,-1.96953 6.618284,-3.33491 7.571181,-3.74333 0.635998,-0.27246 1.322711,-0.58374 1.526013,-0.69115 0.203282,-0.10727 0.514595,-0.19546 0.691812,-0.19546 0.177196,0 0.322182,-0.10135 0.322182,-0.22507 0,-0.12372 0.07819,-0.17703 0.173705,-0.1178 0.18464,0.11385 1.634294,-0.32906 1.880018,-0.57453 0.08023,-0.0803 0.322774,-0.14544 0.539034,-0.14544 0.216259,0 0.559454,-0.0842 0.762775,-0.18625 0.565186,-0.28562 1.847187,-0.6641 2.247329,-0.6641 0.196563,0 0.357424,-0.0855 0.357424,-0.19019 0,-0.10464 0.215534,-0.19414 0.478958,-0.19875 0.457747,-0.007 1.245271,-0.16453 3.352667,-0.66607 2.055258,-0.48898 3.412203,-0.69813 7.663225,-1.18217 0.643903,-0.073 3.086576,-0.17834 5.428122,-0.23363 3.463696,-0.0816 4.971627,-0.0132 8.088959,0.35012 2.107389,0.24745 4.334515,0.50016 4.94917,0.56137 0.614655,0.0592 1.117552,0.18493 1.117552,0.27574 0,0.0908 0.359202,0.22508 0.798254,0.29813 2.3582581,0.39421 4.6271931,0.92681 5.2123638,1.22375 0.2032825,0.10333 0.5159125,0.18757 0.6947035,0.18757 0.178778,0 0.491408,0.0915 0.69471,0.20269 0.203282,0.11122 1.135949,0.45673 2.072569,0.76657 0.936613,0.30997 2.29558703,0.841 3.01994603,1.17966 0.724353,0.33893 1.38405197,0.61599 1.46598997,0.61599 0.08195,0 0.974042,0.40342 1.982443,0.89701 1.008394,0.49358 1.977133,0.86706 2.152749,0.83046 0.175616,-0.0395 0.249393,0.004 0.163957,0.0908 -0.08544,0.0869 0.259405,0.36723 0.766352,0.62389 0.506888,0.25667 1.14892,0.62521 1.426671,0.81955 0.277784,0.19414 0.667281,0.3534 0.865636,0.3534 0.198342,0 0.392533,0.0763 0.431596,0.17045 0.03886,0.0934 1.3641307,1.06897 2.9446667,2.16749 1.580542,1.09851 3.112207,2.21822 3.403705,2.48818 0.291485,0.26982 0.642717,0.49095 0.780515,0.49095 0.137806,0 0.282461,0.0803 0.321458,0.17835 0.03886,0.0981 0.837284,0.83784 1.77389,1.64389 2.691032,2.31609 4.871929,4.49528 6.763916,6.75859 0.962935,1.15196 1.966192,2.3482 2.229477,2.65837 0.263292,0.30997 0.478826,0.64166 0.478958,0.73603 1.45e-4,0.0948 0.09604,0.11319 0.213163,0.0395 0.117055,-0.0724 0.212834,0.0197 0.212834,0.20006 0,0.1823 0.09578,0.33169 0.212834,0.33169 0.117055,0 0.212833,0.10201 0.212833,0.22705 0,0.18953 0.910936,1.54392 1.27803,1.89983 0.0606,0.0592 0.300378,0.47186 0.533369,0.91819 0.233056,0.4462 0.591336,0.99276 0.796213,1.21395 0.204863,0.22113 0.372508,0.50148 0.372508,0.62389 0,0.12175 0.09578,0.22178 0.212899,0.22178 0.117056,0 0.212834,0.14347 0.212834,0.31919 0,0.17571 0.08544,0.31918 0.189779,0.31918 0.104407,0 0.254465,0.25732 0.333446,0.5719 0.07898,0.31457 0.314408,0.81698 0.523092,1.11648 0.208684,0.29944 0.75084,1.26245 1.2048,2.13971 0.453926,0.8772 0.89948,1.62692 0.990055,1.66588 0.09058,0.0395 0.164681,0.24876 0.164681,0.46594 0,0.21718 0.09578,0.45409 0.2129,0.52649 0.117055,0.0724 0.213426,0.29351 0.214151,0.49095 6.39e-4,0.19809 0.144392,0.63376 0.319283,0.9688 0.174891,0.33498 0.317966,0.74176 0.317966,0.90378 0,0.1619 0.08465,0.29484 0.188066,0.29484 0.103419,0 0.235559,0.2152 0.293593,0.47844 0.05797,0.26325 0.455574,1.43554 0.883448,2.6052 0.784494,2.14471 1.793889,5.62657 1.972917,6.80544 0.05336,0.35078 0.180227,0.82942 0.282066,1.06331 0.101838,0.23429 0.232661,0.76032 0.290695,1.16973 0.05797,0.40934 0.253542,1.60559 0.434362,2.6583 0.450831,2.62395 0.859951,7.60077 0.856684,10.42077 -0.0048,4.01447 -0.66767,10.62729 -1.385982,13.82354 -0.846203,3.76531 -1.579738,6.38794 -2.438707,8.71943 -0.430938,1.16965 -0.837693,2.31806 -0.903882,2.55201 -0.0662,0.23429 -0.295569,0.73926 -0.509654,1.123 -0.214151,0.38368 -0.389306,0.79329 -0.389306,0.9103 0,0.2639 -2.281721,4.85422 -3.059265,6.15445 -0.314805,0.52648 -0.67458,1.2202 -0.799586,1.54182 -0.125026,0.32181 -0.313684,0.58506 -0.419343,0.58506 -0.105594,0 -0.192018,0.0974 -0.192018,0.21586 0,0.256 -1.525164,2.62342 -1.756152,2.72602 -0.08781,0.0395 -0.159674,0.19875 -0.159674,0.35472 0,0.15597 -0.07187,0.31523 -0.159609,0.35472 -0.08781,0.0395 -0.778618,0.88437 -1.53513,1.87858 -2.174158,2.85738 -3.327913,4.16662 -6.28775,7.13522 -2.443734,2.45094 -7.93458,7.11364 -8.377117,7.11364 -0.09005,0 -0.358412,0.18098 -0.596277,0.40277 -0.445165,0.41461 -4.0514937,2.78742 -4.2360157,2.78742 -0.05665,0 -0.508469,0.25601 -1.003711,0.56861 -1.049347,0.66239 -4.922821,2.64863 -5.945312,3.04856 -1.01033097,0.39487 -2.06698297,0.83718 -3.044108,1.27331 -0.468287,0.20928 -2.000946,0.73676 -3.405873,1.17282 -1.404926,0.43567 -2.7459891,0.87377 -2.9801457,0.97275 -0.2341763,0.0994 -0.9046782,0.27443 -1.4900729,0.39026 -0.585408,0.11583 -1.4953957,0.31195 -2.0222367,0.43699 -0.526847,0.12504 -1.341069,0.28101 -1.809376,0.34616 -0.468287,0.0658 -0.995154,0.17243 -1.170769,0.23692 -0.175616,0.0658 -0.654574,0.15137 -1.064334,0.19283 -0.985101,0.10003 -2.58061,0.34024 -2.980145,0.44949 -0.443783,0.12109 -12.190688,0.2843 -12.452748,0.17308 z"
         id="path894-6"
         inkscape:connector-curvature="0" />
      <path
         style="fill:#333333;fill-opacity:1;stroke-width:0.21276818"
         d="m -32.051417,230.09015 c -1.40492,-0.10859 -2.95603,-0.29352 -3.446918,-0.41066 -0.490881,-0.1178 -1.227604,-0.21389 -1.637159,-0.21389 -0.409529,0 -0.803847,-0.0954 -0.876202,-0.21257 -0.07233,-0.11714 -0.43041,-0.21256 -0.795705,-0.21256 -0.365262,0 -0.958312,-0.0902 -1.317863,-0.20073 -0.359531,-0.11056 -1.324239,-0.35933 -2.143784,-0.55413 -1.553482,-0.36854 -2.682192,-0.68331 -3.405879,-0.95037 -0.234176,-0.0862 -1.239956,-0.42251 -2.235103,-0.74689 -0.995154,-0.32445 -2.186581,-0.76677 -2.647615,-0.98309 -0.461041,-0.21651 -0.913407,-0.39355 -1.005292,-0.39355 -0.272317,0 -5.6876,-2.52635 -5.926131,-2.76465 -0.108755,-0.10859 -0.400833,-0.27838 -2.111895,-1.22797 -1.569436,-0.87087 -5.542265,-3.52523 -7.041402,-4.70463 -0.760998,-0.59888 -1.546467,-1.21164 -1.745474,-1.36222 -1.646987,-1.24606 -6.588997,-6.05599 -7.944407,-7.73207 -0.457945,-0.56663 -0.883764,-1.07752 -0.94627,-1.13596 -0.398792,-0.37315 -2.112344,-2.52589 -2.314368,-2.90759 -0.134445,-0.25404 -0.368951,-0.58901 -0.52105,-0.74439 -0.260987,-0.26654 -1.949322,-2.79302 -3.217913,-4.81546 -1.738569,-2.77176 -4.16878,-7.75977 -5.148072,-10.56648 -0.204072,-0.58506 -0.450962,-1.15419 -0.548717,-1.26535 -0.09775,-0.11122 -0.177657,-0.40276 -0.177657,-0.64889 0,-0.24548 -0.07622,-0.53768 -0.169424,-0.6489 -0.232332,-0.27706 -0.575593,-1.39105 -1.012571,-3.28574 -0.202294,-0.87727 -0.442992,-1.78644 -0.534818,-2.02034 -0.09183,-0.23428 -0.227194,-0.71247 -0.300839,-1.06337 -0.07364,-0.35077 -0.228577,-1.06864 -0.344249,-1.595 -0.50366,-2.2916 -0.916555,-5.65316 -1.264809,-10.29705 -0.316978,-4.22651 0.20842,-11.03795 1.289083,-16.71191 0.476257,-2.50055 1.735072,-7.00854 2.494245,-8.93213 0.06923,-0.17571 0.134972,-0.36656 0.146105,-0.42514 0.05731,-0.30009 0.845768,-2.34083 1.191658,-3.0837 0.623152,-1.33833 1.485718,-3.30167 1.485718,-3.3817 0,-0.0395 0.526848,-1.00223 1.17077,-2.1382 0.643903,-1.13596 1.170776,-2.11464 1.170776,-2.17479 0,-0.0974 2.841511,-4.53622 3.242786,-5.0654 2.32737,-3.06923 3.271394,-4.29805 3.452794,-4.49456 0.122456,-0.13294 0.845248,-0.93669 1.606245,-1.78684 1.336024,-1.49253 4.012314,-4.16136 5.108819,-5.09462 0.578491,-0.49227 0.814025,-0.68852 2.561685,-2.13346 4.633635,-3.83106 10.445345,-7.26567 16.80925,-9.93411 1.377853,-0.57782 1.59286,-0.66008 2.660843,-1.01934 0.585408,-0.19678 1.255916,-0.4337 1.490073,-0.52715 0.692879,-0.27509 2.885112,-0.90154 4.257346,-1.21704 0.702463,-0.16124 1.660366,-0.39026 2.128672,-0.50806 1.422534,-0.35802 2.838,-0.60415 6.066729,-1.05423 2.719298,-0.37907 3.884442,-0.41922 9.791898,-0.33629 3.687925,0.0526 7.040586,0.15005 7.450358,0.21849 0.409792,0.0684 1.319773,0.21783 2.022243,0.33169 0.702457,0.11385 1.7322,0.30733 2.288321,0.42974 0.556095,0.12241 1.418226,0.30997 1.915806,0.41724 3.0450437,0.65482 7.2846563,1.89918 8.8316763,2.59157 0.496282,0.22179 1.047094,0.40408 1.22398803,0.40408 0.176867,0 0.321589,0.0954 0.321589,0.21257 0,0.11715 0.185958,0.21257 0.413151,0.21257 0.22726,0 0.472371,0.0954 0.544765,0.21257 0.07233,0.11715 0.267179,0.21257 0.432979,0.21257 0.33930897,0 4.01199097,1.774 6.59163297,3.18394 2.420349,1.32293 8.0024017,5.18564 9.3881197,6.49653 0.129175,0.12241 0.84758,0.72122 1.596503,1.33116 2.052827,1.67193 7.370738,7.18458 8.251722,8.55391 0.188131,0.2922 0.606223,0.81882 0.929163,1.16966 0.322906,0.35077 0.587516,0.70299 0.588109,0.78236 6.45e-4,0.079 0.124564,0.27049 0.275675,0.42514 0.314673,0.32182 2.108826,2.96038 3.083408,4.53438 1.981066,3.19953 4.678632,8.75523 5.679399,11.69678 0.198934,0.58506 0.440225,1.25475 0.536201,1.48871 0.340494,0.83027 1.479112,4.70108 1.814178,6.16741 0.187078,0.81876 0.393258,1.68009 0.458143,1.91398 0.203282,0.73334 0.494109,2.64811 0.920474,6.06106 0.460053,3.68266 0.576779,10.83006 0.224032,13.71719 -0.826448,6.76392 -0.964576,7.5291 -2.207403,12.22847 -0.34089,1.28904 -1.437428,4.63421 -1.847345,5.63572 -0.143602,0.35077 -0.335752,0.82942 -0.426919,1.06338 -0.09117,0.23362 -0.510314,1.16584 -0.931396,2.07094 -0.421057,0.90503 -0.765602,1.79032 -0.765602,1.96715 0,0.17703 -0.07187,0.32445 -0.159675,0.32708 -0.08781,0.003 -0.395234,0.52254 -0.683077,1.15479 -0.287862,0.63178 -0.613996,1.09305 -0.724708,1.02474 -0.110732,-0.0684 -0.132667,-0.0132 -0.04875,0.12241 0.154537,0.25008 -0.67726,1.94603 -0.954247,1.94603 -0.0828,0 -0.205192,0.21718 -0.271921,0.48305 -0.101444,0.40408 -1.071876,2.03086 -1.678106,2.81355 -0.09057,0.11715 -0.614194,0.88259 -1.163491,1.70135 -1.157733,1.72563 -2.434571,3.35511 -4.749452,6.06106 -1.191289,1.39263 -3.72341,3.87699 -6.702364,6.57596 -0.981116,0.88891 -3.563307,2.89503 -4.081091,3.17065 -0.254267,0.13557 -0.592653,0.37644 -0.751874,0.53504 -0.4063,0.40605 -3.6620557,2.48522 -5.0653617,3.23507 -0.643903,0.34419 -1.202705,0.69733 -1.241721,0.78506 -0.03887,0.0875 -0.206642,0.15926 -0.372509,0.15926 -0.165866,0 -0.301563,0.0954 -0.301563,0.21257 0,0.11715 -0.110205,0.21257 -0.244848,0.21257 -0.335686,0 -2.611873,1.11405 -2.6998,1.32135 -0.03886,0.0921 -0.188724,0.16716 -0.332655,0.16716 -0.143931,0 -0.758132,0.2389 -1.364856,0.53176 -0.60675097,0.2922 -1.20069597,0.53175 -1.31993797,0.53175 -0.119229,0 -0.383114,0.0875 -0.586396,0.1948 -0.66694503,0.35143 -1.83515203,0.8021 -3.34977603,1.29213 -0.819531,0.26522 -1.681643,0.55676 -1.915806,0.64824 -0.234176,0.0915 -1.4315256,0.42053 -2.6608361,0.73162 -1.2293105,0.31063 -2.5292762,0.65416 -2.8888272,0.76308 -0.359531,0.10859 -0.95258,0.19809 -1.317856,0.19809 -0.365262,0 -0.715927,0.0836 -0.779211,0.18625 -0.06324,0.102 -0.619727,0.24218 -1.23655,0.31062 -0.616829,0.0685 -1.887804,0.2231 -2.824424,0.34288 -2.431797,0.31194 -11.459879,0.44357 -14.474983,0.2106 z m 15.095712,-3.63007 c 1.414761,-0.22902 3.003347,-0.46726 3.530194,-0.52846 0.526847,-0.0592 1.149486,-0.18954 1.383636,-0.28365 0.234177,-0.0941 0.952581,-0.28627 1.596503,-0.42711 1.5527837,-0.33958 4.4614313,-1.17301 5.2152493,-1.4945 0.234176,-0.10003 1.14417,-0.44357 2.022249,-0.76328 2.72180103,-0.99177 7.017946,-3.03243 9.565007,-4.54339 1.543574,-0.91563 4.5638097,-2.83718 4.6971027,-2.98841 0.05863,-0.0665 0.612679,-0.4791 1.231451,-0.91701 0.61874,-0.43764 1.401172,-1.04218 1.738682,-1.34261 0.337531,-0.3001 0.680166,-0.56137 0.761439,-0.5798 0.147093,-0.0329 0.723845,-0.56071 3.316313,-3.03145 2.588975,-2.46745 6.199375,-6.46191 7.093626,-7.84822 0.226337,-0.35077 0.513739,-0.74696 0.638567,-0.88009 0.475203,-0.50675 0.972085,-1.14952 0.972085,-1.25765 0,-0.0592 0.178844,-0.37183 0.397474,-0.68871 0.218631,-0.31721 0.865208,-1.34386 1.436848,-2.282 0.571641,-0.9382 1.156067,-1.89522 1.298714,-2.12668 0.823267,-1.33616 3.260861,-6.53411 3.898974,-8.31423 0.246757,-0.68832 0.530667,-1.44284 0.630925,-1.6768 0.246561,-0.57519 1.214233,-3.69825 1.350885,-4.35971 0.0606,-0.2922 0.21863,-0.91451 0.351693,-1.38236 1.45103,-5.10424 2.315012,-15.22011 1.734624,-20.30987 -0.701838,-6.1549 -0.769805,-6.61479 -1.320057,-8.93213 -0.124959,-0.52648 -0.275741,-1.24409 -0.335092,-1.59499 -0.05929,-0.35077 -0.213229,-0.85317 -0.34201,-1.11622 -0.12878,-0.26324 -0.181544,-0.53044 -0.117253,-0.59493 0.06455,-0.0658 -0.158686,-0.8539 -0.495624,-1.75485 -0.336871,-0.90089 -0.612876,-1.80546 -0.613272,-2.0102 -4.28e-4,-0.20467 -0.07668,-0.37249 -0.169489,-0.37249 -0.09281,0 -0.289312,-0.4508 -0.436734,-1.00125 -0.263819,-0.98539 -0.409529,-1.35077 -1.467064,-3.67745 -0.668176,-1.47009 -2.202344,-4.5405 -2.774828,-5.55339 -0.890898,-1.57631 -1.012143,-1.77341 -1.252629,-2.03659 -0.135368,-0.14808 -0.374287,-0.55874 -0.530932,-0.91207 -0.156644,-0.35341 -0.35716,-0.64298 -0.445693,-0.64298 -0.08853,0 -0.160926,-0.13557 -0.160926,-0.30141 0,-0.16585 -0.07694,-0.33301 -0.170939,-0.37249 -0.094,-0.0395 -0.77871,-0.93222 -1.521553,-1.98493 -0.74283,-1.05271 -1.408286,-1.96189 -1.478789,-2.02033 -0.07048,-0.0592 -0.600163,-0.68055 -1.17708,-1.38236 -1.327606,-1.61507 -1.434121,-1.72918 -3.799223,-4.07087 -2.994757,-2.96518 -3.615551,-3.51964 -5.704101,-5.09495 -0.752592,-0.5673 -1.400276,-1.10616 -1.439305,-1.19671 -0.03886,-0.0902 -0.185497,-0.16453 -0.325542,-0.16453 -0.139979,0 -0.392665,-0.19151 -0.56143,-0.42514 -0.168765,-0.23429 -0.387857,-0.42514 -0.486929,-0.42514 -0.09901,0 -0.494043,-0.23889 -0.8777817,-0.53175 -0.383773,-0.2922 -0.750886,-0.53175 -0.815876,-0.53175 -0.104144,0 -2.042459,-1.22455 -2.609166,-1.64837 -0.117187,-0.0875 -0.596145,-0.3567 -1.064339,-0.59888 -0.468156,-0.24153 -1.521758,-0.78466 -2.341303,-1.20691 -1.764062,-0.90885 -3.13341097,-1.51773 -6.279582,-2.79229 -0.761004,-0.30866 -1.504677,-0.56005 -1.652619,-0.56005 -0.14795,3.3e-4 -0.435285,-0.0921 -0.638633,-0.20533 -0.526584,-0.29352 -2.2837564,-0.85976 -3.7755091,-1.21685 -3.4084412,-0.81573 -4.6645092,-1.05192 -8.3018242,-1.5609 -2.799103,-0.39158 -3.915192,-0.43501 -9.046862,-0.35209 -5.848454,0.0948 -8.063446,0.27904 -11.069104,0.92227 -0.878079,0.18756 -1.97967,0.41659 -2.447976,0.50872 -2.025227,0.3975 -5.961998,1.54597 -7.237498,2.11102 -0.234177,0.10398 -0.952581,0.37776 -1.596503,0.60875 -2.173111,0.78006 -6.910541,3.02948 -8.233752,3.90957 -0.489366,0.32576 -0.943662,0.59164 -1.009475,0.59164 -0.134446,0 -4.214357,2.57439 -4.38029,2.76393 -0.05863,0.0671 -1.160125,0.92721 -2.447969,1.91194 -1.287852,0.98473 -2.759342,2.17775 -3.269978,2.65113 -2.799188,2.59513 -5.930755,5.93569 -7.448376,7.94556 -0.413876,0.5482 -0.814433,1.04448 -0.890094,1.10292 -0.255255,0.19744 -3.760951,5.41395 -4.359026,6.48647 -1.387411,2.48792 -3.049589,5.88172 -3.801753,7.7624 -0.444441,1.11116 -0.890001,2.21171 -0.990174,2.44567 -0.100191,0.23429 -0.440686,1.28667 -0.756702,2.33938 -0.31599,1.05272 -0.646208,2.10543 -0.733726,2.33932 -0.209672,0.56005 -0.53719,1.84982 -0.837311,3.29641 -0.133457,0.64297 -0.334895,1.55248 -0.447537,2.02033 -0.318229,1.32129 -0.629937,4.11944 -0.915204,8.21611 -0.348729,5.00854 0.01515,10.62196 1.032187,15.92185 0.190766,0.9942 0.399187,2.16715 0.463149,2.60651 0.0639,0.43961 0.201964,0.85172 0.306636,0.91635 0.104737,0.0658 0.190371,0.34682 0.190371,0.62652 0,0.28035 0.08932,0.72892 0.198473,0.99763 0.109151,0.26851 0.356568,1.06271 0.549837,1.76452 0.19327,0.70181 0.439237,1.44218 0.546543,1.64528 0.107372,0.20335 0.19518,0.56202 0.19518,0.79749 0,0.23561 0.09578,0.42843 0.2129,0.42843 0.117055,0 0.212834,0.18559 0.212834,0.41264 0,0.22705 0.09578,0.47186 0.212833,0.54426 0.117056,0.0724 0.2129,0.27903 0.2129,0.4587 0,0.34024 0.203546,0.83369 1.410347,3.41973 0.395103,0.8466 0.718326,1.63613 0.718326,1.75452 0,0.11846 0.07239,0.21521 0.160926,0.21521 0.08847,0 0.294384,0.31128 0.45755,0.69114 0.163165,0.38039 0.632243,1.26535 1.042456,1.96716 0.410188,0.70181 0.854668,1.46745 0.987678,1.70135 0.324158,0.56992 2.703119,4.17031 3.021421,4.57241 3.338927,4.21829 3.819532,4.76748 6.686496,7.64039 1.537732,1.54097 3.274523,3.10365 4.671077,4.20282 0.380479,0.29944 2.077747,1.6639 2.611893,2.0997 0.206246,0.16848 0.41717,0.30603 0.468748,0.30603 0.05138,0 0.697081,0.41987 1.434424,0.93306 3.381598,2.35354 7.51179,4.53662 12.509693,6.6123 0.991597,0.41197 1.926853,0.74873 2.07834,0.74873 0.151507,0 0.44174,0.0842 0.645088,0.18756 0.679922,0.34551 1.429148,0.62981 1.966126,0.7457 0.691647,0.1494 2.853665,0.6847 3.93805,0.97493 2.207917,0.59098 6.759139,1.30134 9.579031,1.49503 3.847191,0.26456 10.790306,0.0329 13.818505,-0.4541 z m -10.519056,-31.45772 c -0.526848,-0.0974 -1.867911,-0.33366 -2.980146,-0.52583 -1.112229,-0.19216 -2.21382,-0.4304 -2.447976,-0.53043 -0.234177,-0.0994 -0.760998,-0.28167 -1.17077,-0.40474 -1.451551,-0.43633 -3.948246,-1.31359 -4.683079,-1.6456 -1.469284,-0.6639 -4.365851,-2.09016 -4.470219,-2.20112 -0.05863,-0.0592 -0.345896,-0.23034 -0.638567,-0.37315 -1.168108,-0.57123 -3.974015,-2.31694 -4.4336,-2.75859 -0.155459,-0.1494 -0.49075,-0.38237 -0.745037,-0.51794 -0.254267,-0.13491 -1.372352,-0.96781 -2.484588,-1.85021 -1.112235,-0.88246 -2.148856,-1.70424 -2.30361,-1.82625 -0.599307,-0.47253 -3.385189,-3.05212 -4.718433,-4.36893 -2.71497,-2.68153 -4.834974,-5.07192 -6.601473,-7.44342 -1.543443,-2.07206 -2.151386,-2.72701 -2.829905,-3.04869 -0.791871,-0.37513 -1.967687,-0.47253 -2.1502,-0.17704 -0.150913,0.24416 -2.209774,0.67035 -3.07213,0.6364 -0.870325,-0.0329 -1.952536,-1.03034 -1.952536,-1.79691 0,-0.9153 1.090708,-2.63145 1.672427,-2.63145 0.267244,0 2.44739,-1.15195 3.293541,-1.7403 1.465996,-1.01929 2.947124,-2.4054 4.124164,-3.85962 0.678664,-0.83843 1.35184,-1.64909 1.495936,-1.80145 0.41526,-0.43896 1.87787,-0.40671 2.385891,0.0526 0.644891,0.58309 0.601152,2.31201 -0.09347,3.69364 -0.442464,0.88023 -0.532183,1.36242 -0.532183,2.8618 0,3.00868 0.932273,4.96945 3.865735,8.13042 0.217115,0.23428 0.944814,1.03882 1.617154,1.78867 2.293235,2.55748 5.635719,5.75899 7.661677,7.33859 0.73173,0.57058 1.330424,1.11885 1.330424,1.21855 0,0.10004 0.127002,0.18164 0.282198,0.18164 0.155195,0 0.507151,0.23955 0.782149,0.53175 0.274951,0.2922 0.583036,0.53176 0.684605,0.53176 0.101575,0 0.394575,0.19545 0.651148,0.43435 0.256573,0.23889 0.899158,0.68509 1.427956,0.9917 0.528823,0.30668 1.009336,0.61402 1.067883,0.68233 0.47079,0.5515 5.557667,3.13899 8.408262,4.27647 0.745688,0.29746 3.336047,1.02764 5.215248,1.46988 2.699787,0.63574 8.104254,0.85805 10.254612,0.42251 3.142528,-0.63639 5.115749,-1.21691 6.987645,-2.05528 0.643902,-0.28825 1.410242,-0.63046 1.702946,-0.75965 0.9600305,-0.42448 4.5460183,-2.76472 6.0667153,-3.95899 2.094531,-1.64495 5.67345003,-5.32273 7.343928,-7.54681 0.409792,-0.54558 0.859569,-1.11951 0.999567,-1.27542 0.366119,-0.40803 3.288963,-4.92872 3.998981,-6.18538 0.792959,-1.40348 1.23709,-2.2862 1.926168,-3.82809 0.8877227,-1.98637 0.9145327,-2.0558 1.2720027,-3.29634 0.185365,-0.64297 0.436141,-1.4845 0.557214,-1.86923 0.121074,-0.38499 0.220146,-1.44442 0.220146,-2.35491 0,-1.40533 -0.08735,-1.81172 -0.578426,-2.69049 -0.318163,-0.56926 -0.746123,-1.21494 -0.9510517,-1.43468 -0.676147,-0.7251 -0.74057,-2.33701 -0.124499,-3.11457 0.130164,-0.16453 0.5530647,-0.43106 0.9397617,-0.5923 1.159459,-0.48437 1.967812,-0.18295 3.479518,1.29674 0.7436,0.72787 1.878852,1.67575 2.522774,2.10635 0.643903,0.4304 1.266555,0.85515 1.383636,0.9434 0.260921,0.19677 1.784826,0.94228 3.12224,1.52754 1.740282,0.76156 2.331764,2.14076 1.558639,3.63447 -0.466903,0.90194 -0.91996,1.05903 -3.054562,1.05903 h -1.913981 l -1.026938,1.01586 c -0.925783,0.91576 -1.941891,2.67344 -3.070285,5.31108 -0.162639,0.38039 -0.368095,0.69115 -0.456628,0.69115 -0.08853,0 -0.160926,0.0935 -0.160926,0.2073 0,0.25732 -1.260962,2.82928 -1.879497,3.83369 -0.252094,0.40934 -0.524213,0.88792 -0.604643,1.06337 -0.391414,0.8537 -4.7087027,7.09153 -5.1516427,7.44342 -0.07364,0.0592 -0.61281,0.68003 -1.198205,1.38131 -2.339794,2.80283 -5.745449,5.91397 -8.662667,7.91351 -1.935357,1.32655 -6.0816623,3.61427 -6.8372773,3.77248 -0.138727,0.0263 -0.539627,0.17111 -0.890845,0.31589 -1.649432,0.67963 -3.176894,1.07075 -6.279589,1.60783 -1.958406,0.33893 -7.523259,0.39816 -9.153298,0.0981 z m -20.009536,-55.31861 c -1.044841,-0.60348 -1.627561,-1.18117 -2.232132,-2.21184 -0.936488,-1.59651 -1.218685,-2.78255 -1.209186,-5.08225 0.0072,-1.77755 0.104737,-2.40309 0.568874,-3.65409 0.612547,-1.65107 1.830778,-3.10582 3.025281,-3.61269 0.988205,-0.41922 2.699491,-0.36525 3.634068,0.11517 3.969806,2.04007 4.666387,10.10086 1.166146,13.4948 -0.443256,0.42975 -1.079385,0.92313 -1.413701,1.09641 -0.867118,0.44949 -2.635389,0.37644 -3.539323,-0.14544 z m 35.459246,0.1823 c -0.430147,-0.26653 -0.973251,-0.67792 -1.597498,-1.21033 -0.461963,-0.39421 -1.505902,-2.24205 -1.505902,-2.66587 0,-0.17111 -0.07859,-0.31129 -0.174627,-0.31129 -0.341351,0 -0.582246,-3.31003 -0.350705,-4.8198 0.393324,-2.56504 1.803283,-4.93654 3.37926,-5.6837 0.936791,-0.44422 2.7341258,-0.4383 3.6842231,0.0132 2.2553722,1.06923 3.4665872,3.58393 3.4665872,7.19715 0,3.74991 -1.053827,5.97373 -3.4655728,7.31312 -0.9035584,0.50148 -2.7515625,0.5923 -3.4357985,0.16847 z"
         id="path882-7"
         inkscape:connector-curvature="0" />
    </g>
  </g>
</svg>
